<svg width="217" height="146" viewBox="0 0 217 146" fill="none" xmlns="http://www.w3.org/2000/svg">
<path d="M54.4244 29.335L54.4193 29.3352C54.4111 29.3355 54.403 29.3337 54.3957 29.3299L54.3918 29.3279C53.7196 28.9873 53.0291 28.6837 52.3236 28.4187C51.624 28.1529 50.8989 27.8955 50.1938 27.6891L50.2511 27.6974L50.2408 27.6977C50.2233 27.6982 50.2058 27.6959 50.189 27.691L50.1748 27.6866C46.4497 26.519 42.5817 25.868 38.6794 25.7519C36.7345 25.6943 34.7879 25.7563 32.8506 25.9376L26.9787 26.4333C23.0629 26.749 19.1396 26.9747 15.2183 27.2241C11.296 27.4616 7.37544 27.7192 3.46044 28.045L3.54423 27.7453C4.23699 28.2484 4.87074 28.8279 5.43345 29.473C5.99021 30.1257 6.46473 30.8442 6.84637 31.6125C7.21564 32.3858 7.50831 33.1933 7.72021 34.0235C7.92095 34.8555 8.04974 35.7032 8.10515 36.5573C8.20036 38.2641 8.08548 39.9762 7.7631 41.655C7.45818 43.3413 6.97966 44.9915 6.33517 46.5794L5.86888 45.9797C8.62358 45.4596 11.3774 44.935 14.1357 44.4352L22.4072 42.9177L21.9553 43.3247L22.0152 43.1473L21.997 43.1956C22.3972 41.9303 23.2214 40.8414 24.3309 40.1123C25.4336 39.385 26.7415 39.0323 28.0606 39.1064C29.3854 39.1914 30.6423 39.7223 31.6264 40.6126C31.7549 40.7156 31.871 40.8332 31.9721 40.9631L32.2917 41.3385C32.4834 41.6029 32.6601 41.8779 32.821 42.1621C32.974 42.444 33.0784 42.7339 33.2083 43.0197C33.2689 43.1634 33.3349 43.3056 33.3905 43.4506L33.5269 43.8937C34.1853 46.2367 34.4383 48.6749 34.2752 51.1031C34.1669 53.4985 33.8305 55.8781 33.2705 58.2097L32.8571 57.795L38.4175 56.6331L43.9893 55.5199C44.0034 55.5171 44.0179 55.5198 44.0299 55.5276C44.042 55.5353 44.0505 55.5475 44.0537 55.5614C44.0569 55.5754 44.0545 55.59 44.047 55.6022C44.0396 55.6144 44.0276 55.6232 44.0138 55.6268L38.5184 57.0672L33.0132 58.4661C32.9578 58.4801 32.8998 58.48 32.8444 58.4657C32.7891 58.4514 32.7383 58.4234 32.6966 58.3843C32.655 58.3452 32.6239 58.2963 32.6061 58.242C32.5884 58.1877 32.5846 58.1299 32.5952 58.0737L32.5996 58.0513C33.0439 55.7503 33.2977 53.4167 33.3583 51.074C33.4582 48.7618 33.164 46.4495 32.4882 44.2359L32.3579 43.8316C32.3059 43.7012 32.2445 43.5754 32.1886 43.447C32.07 43.196 31.9704 42.9257 31.8381 42.69C31.6881 42.4711 31.5707 42.2276 31.4005 42.026L31.1399 41.7284C31.0597 41.6238 30.9657 41.5305 30.8605 41.4511C30.0635 40.7492 29.0529 40.3364 27.9921 40.2793C26.9263 40.2182 25.8692 40.5013 24.977 41.0869C24.0883 41.6727 23.4234 42.5409 23.0897 43.5511L23.0714 43.5996C23.0686 43.6134 23.0644 43.6269 23.0587 43.6398L23.0218 43.7236C22.9844 43.8073 22.927 43.8806 22.8546 43.937C22.7822 43.9934 22.6971 44.0312 22.6066 44.047L14.3148 45.4498C11.552 45.9234 8.78467 46.3722 6.01825 46.8256C5.94146 46.8381 5.8627 46.8298 5.79027 46.8014C5.71783 46.773 5.65439 46.7256 5.60665 46.6642C5.55891 46.6028 5.52863 46.5297 5.51899 46.4525C5.50936 46.3754 5.52072 46.297 5.5519 46.2258C6.20931 44.7078 6.72195 43.1312 7.083 41.517C7.45856 39.9004 7.62746 38.2427 7.58565 36.5836C7.55849 35.7566 7.46034 34.9335 7.29229 34.1233C7.11424 33.3161 6.8466 32.5313 6.49436 31.7834C6.13531 31.0393 5.68636 30.3418 5.15753 29.7068C4.62032 29.0765 4.01382 28.5087 3.34948 28.0141L3.34485 28.0105C3.31846 27.99 3.29888 27.962 3.28868 27.9302C3.27848 27.8984 3.27813 27.8642 3.28768 27.8322C3.29723 27.8002 3.31625 27.7718 3.34222 27.7508C3.36819 27.7297 3.39992 27.717 3.43324 27.7143C7.34887 27.3964 11.2591 27.0126 15.1673 26.6044C19.0765 26.2088 22.9838 25.7895 26.8984 25.4601L32.7722 24.9883C34.7493 24.8197 36.7358 24.7893 38.7172 24.8973C40.6977 25.0069 42.6671 25.2655 44.6087 25.6708C46.5485 26.0631 48.4539 26.6095 50.3066 27.3049L50.2408 27.2939L50.2511 27.2942L50.2666 27.2947C50.2809 27.2952 50.295 27.2978 50.3085 27.3026C51.0428 27.5646 51.7299 27.8559 52.4289 28.168C53.1241 28.4782 53.7981 28.8338 54.4466 29.2324L54.4194 29.2252L54.4245 29.2253C54.4387 29.2259 54.4521 29.2319 54.462 29.2421C54.4718 29.2524 54.4773 29.266 54.4773 29.2802C54.4773 29.2944 54.4718 29.308 54.462 29.3182C54.4521 29.3284 54.4387 29.3345 54.4245 29.335L54.4244 29.335ZM78.4365 43.9595C78.1236 42.393 77.4955 40.9063 76.5903 39.5896C76.1386 38.9584 75.6191 38.3785 75.041 37.8604C74.4556 37.3492 73.8282 36.8882 73.1653 36.4823C71.8037 35.6868 70.351 35.0584 68.8386 34.611C67.305 34.1468 65.7368 33.8055 64.1489 33.5903L64.1183 33.5873C63.5756 33.4361 63.0348 33.2747 62.4959 33.103C63.061 33.1308 63.6238 33.171 64.1851 33.2205L64.1546 33.2175C65.8127 33.1451 67.4728 33.303 69.0874 33.6867C70.7273 34.0558 72.296 34.6895 73.7318 35.5629C75.1958 36.4444 76.4146 37.6794 77.2763 39.1545C78.1049 40.6163 78.5069 42.281 78.4365 43.9595Z" fill="#1C1C1C"/>
<path d="M26.4623 39.4416C27.4186 39.0717 28.3856 38.7497 29.3592 38.4576C30.332 38.1615 31.3098 37.8881 32.2927 37.6374C33.2727 37.3734 34.2634 37.1581 35.2504 36.9255C36.2427 36.7174 37.2332 36.4999 38.2331 36.3251L38.4642 36.2848L38.6094 36.3956C39.0193 36.7121 39.3976 37.0675 39.7388 37.457C40.0775 37.8275 40.3886 38.2223 40.6698 38.6381C40.9516 39.0489 41.2044 39.4787 41.4265 39.9245C41.6504 40.3655 41.8397 40.8232 41.9928 41.2934C41.7064 40.8929 41.4114 40.5052 41.108 40.1303C40.8002 39.756 40.4897 39.3825 40.1657 39.0436C39.8351 38.7 39.4967 38.3675 39.1452 38.0545C38.8018 37.7527 38.4422 37.4699 38.0679 37.2073L38.444 37.2777C37.464 37.5403 36.4745 37.7605 35.4878 37.9939C34.4954 38.2017 33.5069 38.4268 32.5076 38.6033C31.5115 38.7946 30.5101 38.9616 29.5032 39.1044C28.4976 39.2528 27.4853 39.3711 26.4623 39.4416ZM12.5408 27.1323C13.713 28.2157 14.6354 29.5408 15.244 31.0159C15.8804 32.4907 16.282 34.0559 16.434 35.6548C16.5612 37.2498 16.4632 38.8547 16.1431 40.4224C16.1045 40.6172 16.0748 40.8135 16.0287 41.0063L15.8649 41.5788L15.5211 42.7139C15.2434 43.4538 14.9185 44.1752 14.5779 44.8792C14.6888 44.0939 14.8718 43.3411 14.9994 42.5795L15.1602 41.4349L15.2489 40.8675C15.2727 40.6778 15.2799 40.4858 15.2963 40.2956C15.3228 39.9141 15.3533 39.5346 15.3934 39.1568C15.4217 38.778 15.4068 38.397 15.416 38.0185C15.433 37.2627 15.4082 36.5065 15.3418 35.7534C15.2025 34.2475 14.9024 32.7609 14.4466 31.3188C13.9875 29.8497 13.3473 28.4434 12.5408 27.1323Z" fill="#1C1C1C"/>
<path d="M42.2886 38.5442C43.1087 38.2382 43.9341 37.9374 44.7646 37.6521C44.7186 37.9908 44.6943 38.3321 44.6919 38.6739C43.9808 38.8969 43.2645 39.1096 42.5429 39.3171C42.055 39.4572 41.5671 39.5972 41.074 39.7372C41.0065 39.6335 40.939 39.5349 40.8716 39.4416C40.8041 39.343 40.7314 39.2497 40.6691 39.1615C41.2089 38.9488 41.7488 38.7465 42.2886 38.5442ZM50.4691 36.791C49.8359 37.0088 49.213 37.2267 48.5797 37.4394H48.5745C48.3773 37.1273 48.1477 36.837 47.8894 36.5732L48.1229 36.4953C48.8237 36.2671 49.5244 36.0389 50.2252 35.8158C50.3082 36.1686 50.3964 36.4953 50.4691 36.791ZM46.9031 33.3728C47.9465 33.0356 48.9898 32.6984 50.0383 32.3716C49.925 32.7198 49.8706 33.0845 49.8774 33.4505C49.0002 33.7618 48.1126 34.0574 47.2301 34.3583C45.2733 34.9963 43.306 35.6239 41.3232 36.1893C40.4044 36.459 39.4804 36.7166 38.5513 36.9622C37.482 37.2475 36.4128 37.5172 35.3279 37.7506C35.7587 37.5587 36.1896 37.3668 36.6256 37.18C36.6308 37.18 36.6308 37.18 36.636 37.1748C38.0997 36.5524 39.5843 35.9766 41.0688 35.4216C42.9997 34.6954 44.9514 34.0315 46.9031 33.3728ZM55.0681 31.5365C54.9798 31.5728 54.8916 31.6091 54.8033 31.6403C54.5764 31.4505 54.3205 31.2982 54.0455 31.189C54.3258 31.1112 54.6061 31.0334 54.8864 30.9556C54.9539 31.1734 55.0162 31.3705 55.0681 31.5365ZM5.94456 46.4006C-5.77406 35.7123 3.44882 27.8818 3.44882 27.8818C11.6393 33.8085 5.94456 46.4006 5.94456 46.4006ZM32.9342 58.1286C23.2642 61.0111 22.5074 43.4816 22.5074 43.4816C22.5188 43.4456 22.5302 43.4099 22.5418 43.3744C23.9957 38.9113 30.2279 38.334 32.3779 42.5071C35.2914 48.162 32.9342 58.1286 32.9342 58.1286ZM40.2284 56.0351C38.6268 59.9787 36.9882 63.8817 35.4804 67.8206C33.9395 71.7111 32.641 75.6932 31.5923 79.744C31.3449 80.738 31.1549 81.7455 31.0232 82.7613C30.8802 83.7448 30.8846 84.7441 31.0364 85.7263C31.1161 86.1882 31.273 86.6335 31.5004 87.0435C31.7324 87.4331 32.0539 87.7618 32.4383 88.0024C33.3159 88.4469 34.3137 88.5961 35.283 88.4278C37.3419 88.0707 39.3227 87.3578 41.1366 86.3211C41.5973 86.066 42.0586 85.8141 42.5136 85.5481L43.8584 84.7117C44.766 84.174 45.6165 83.5443 46.4872 82.9529C47.3547 82.3559 48.1797 81.6975 49.0256 81.075L50.2541 80.0858C50.663 79.7561 51.0837 79.4428 51.4781 79.0953C52.2711 78.4063 53.0965 77.7604 53.8677 77.0486L55.0434 76.0055L56.1888 74.9291C57.71 73.4889 59.1734 71.9916 60.5789 70.4375C61.9943 68.895 63.3524 67.3013 64.6786 65.681C67.3376 62.4327 69.8135 59.0388 72.0947 55.5152C73.2392 53.7499 74.3374 51.9518 75.3893 50.1208C76.4427 48.2915 77.4509 46.4279 78.3691 44.5178L78.5759 44.5912C77.3337 48.6919 75.6593 52.6492 73.581 56.3966C71.5296 60.1732 69.1618 63.7693 66.5031 67.1465C63.8158 70.5107 60.8321 73.6276 57.588 76.4595L56.3704 77.5174L55.1186 78.5347C54.2895 79.2186 53.4219 79.8553 52.5545 80.4887C51.6855 81.1201 50.7832 81.7062 49.8891 82.2979C48.9685 82.8524 48.0721 83.4398 47.1363 83.9634C46.2016 84.4886 45.2792 85.0297 44.326 85.5163C43.3811 86.0155 42.439 86.5187 41.4735 86.9855C39.5505 87.9782 37.4995 88.7006 35.3787 89.1324C34.2476 89.3709 33.0704 89.2524 32.0097 88.7932C31.4621 88.5187 30.9884 88.117 30.6281 87.6218C30.2894 87.132 30.0307 86.5915 29.8618 86.0205C29.5625 84.9259 29.4312 83.7922 29.4722 82.6582C29.5022 81.5584 29.6126 80.4623 29.8025 79.3787C30.1901 77.2492 30.7585 75.1567 31.5017 73.1236C32.2137 71.0947 33.0275 69.1124 33.911 67.1652C34.3436 66.1879 34.814 65.2282 35.2876 64.2716C35.7572 63.3132 36.2525 62.3677 36.7623 61.4307C37.7783 59.5549 38.8492 57.71 40.0351 55.9313L40.2284 56.0351ZM14.4294 30.1535C17.4187 29.704 20.4161 29.3624 23.4162 29.0587C26.4159 28.7482 29.4203 28.5016 32.4257 28.2675C35.4326 28.0538 38.4405 27.8538 41.4531 27.7175C44.4653 27.5743 47.4802 27.47 50.5033 27.4744C47.5141 27.9253 44.5168 28.2675 41.5166 28.5709C38.5169 28.8811 35.5124 29.1276 32.507 29.3604C29.5 29.5728 26.4921 29.7728 23.4794 29.9088C20.4673 30.0516 17.4523 30.1565 14.4294 30.1535Z" fill="#1C1C1C"/>
<path d="M51.144 80.4759C50.7141 76.6663 50.3007 72.8507 49.9305 69.0309L49.7887 67.5985L49.7177 66.8822C49.7106 66.8264 49.7085 66.7543 49.6974 66.7118C49.6844 66.6778 49.6739 66.643 49.6658 66.6076C49.6299 66.5119 49.589 66.4181 49.5433 66.3267C49.1198 65.5246 48.564 64.7222 48.0482 63.9214C46.9957 62.3184 45.9805 60.6749 45.0732 58.9638C44.6243 58.1054 44.2013 57.2302 43.8317 56.327C43.4659 55.4123 43.1593 54.5015 42.8417 53.6023C42.2039 51.7965 41.5717 49.9891 40.9631 48.1734L40.0396 45.4535L39.8087 44.7735C39.7187 44.5161 39.6584 44.2494 39.6289 43.9784C39.5645 43.4272 39.6423 42.8687 39.8548 42.356C40.0662 41.8102 40.4684 41.3595 40.9868 41.0873C41.5227 40.8521 42.1277 40.8278 42.6807 41.0194C43.6317 41.376 44.4996 41.9235 45.2308 42.6281L44.6602 42.9484C44.5282 42.0234 44.4435 41.0923 44.4064 40.1587C44.3884 39.6928 44.3855 39.2217 44.4042 38.7554C44.4438 38.2852 44.4626 37.8074 44.542 37.3408C44.6102 36.8439 44.7877 36.3682 45.0618 35.9479C45.2252 35.7119 45.4665 35.5408 45.7434 35.4644C46.0093 35.4099 46.2848 35.425 46.5431 35.5085C47.4754 35.8252 48.2578 36.4749 48.7401 37.3328L48.5746 37.2426H48.5796L48.687 37.2432L48.744 37.331C49.0629 37.8417 49.3516 38.3706 49.6085 38.9151C49.7278 39.174 49.8677 39.4229 50.027 39.6593C50.1252 39.7756 50.1237 39.774 50.2634 39.7821C50.3073 39.7865 50.3515 39.7774 50.39 39.7561C50.4286 39.7347 50.4596 39.702 50.4791 39.6625C50.5759 39.4141 50.6147 39.147 50.5926 38.8813C50.585 38.59 50.5621 38.2993 50.524 38.0104C50.4495 37.4265 50.3345 36.8484 50.1797 36.2804C50.0218 35.7021 49.8945 35.1159 49.7985 34.5242C49.6893 33.9191 49.6809 33.3 49.7736 32.6921C49.8316 32.377 49.9487 32.0757 50.1187 31.804C50.2974 31.5293 50.5412 31.303 50.8286 31.1451C51.3958 30.8678 52.0268 30.7462 52.6566 30.793L52.6242 30.7946C52.8928 30.7687 53.1635 30.7776 53.4298 30.8211C53.6934 30.8636 53.9512 30.9365 54.198 31.0382C54.6971 31.2472 55.1297 31.5883 55.4491 32.0249L55.429 32.0016C55.4705 32.0455 55.4947 32.103 55.4971 32.1635L55.4932 33.0479L55.0873 32.2608L55.0821 32.2506L55.0769 32.2407L55.0682 32.2159C54.3414 30.2903 53.8516 28.2834 53.6098 26.2395C53.5586 25.71 53.5659 25.1765 53.6314 24.6486C53.6806 24.0599 53.9358 23.5074 54.3523 23.0881C54.5955 22.8779 54.8927 22.7399 55.2103 22.6898C55.518 22.6538 55.8299 22.6856 56.124 22.7828C56.6497 22.9798 57.13 23.2809 57.5363 23.6681C58.2992 24.3926 58.9697 25.2084 59.5326 26.0971C60.0999 26.9606 60.6212 27.8533 61.0944 28.7717C62.0798 30.5928 62.8574 32.5187 63.4124 34.5133C63.9413 36.4882 64.4408 38.4451 65.119 40.3335C65.8034 42.1985 66.6291 44.0751 67.9427 45.4353C68.5522 46.1026 69.369 46.545 70.2612 46.6909C70.7194 46.7386 71.182 46.7199 71.6348 46.6352C72.1173 46.5687 72.5949 46.4708 73.0646 46.3421C74.0068 46.087 74.9154 45.721 75.7711 45.2516C76.6175 44.7896 77.3995 44.2182 78.0969 43.5524L78.6574 42.9964L78.9559 43.6768C79.2795 44.4411 79.476 45.2531 79.5379 46.0807C79.6051 46.8831 79.5763 47.6907 79.4521 48.4863C79.1881 50.0605 78.6181 51.5677 77.7742 52.9229C77.3552 53.6111 76.8454 54.2399 76.2587 54.7924C75.6617 55.3224 75.0097 55.7869 74.3137 56.1781C73.6289 56.5627 72.9273 56.8819 72.2841 57.2404C71.6561 57.5441 71.1189 58.0073 70.7262 58.5836C70.3987 59.2081 70.2255 59.9017 70.221 60.6067C70.171 61.3569 70.1425 62.1135 70.1336 62.8724C70.1146 64.3901 70.1439 65.9129 70.198 67.4347C70.2565 68.9563 70.3157 70.4795 70.4143 72.0004C70.5222 73.5184 70.6064 75.0476 70.8619 76.5434L70.7608 76.5667C70.4348 75.0653 70.2836 73.5446 70.1072 72.0267C69.9462 70.5073 69.7995 68.9857 69.6992 67.4602C69.5979 65.9347 69.5212 64.407 69.4931 62.8734C69.4786 62.1066 69.4846 61.3368 69.5113 60.564C69.498 59.7392 69.6846 58.9234 70.055 58.1861C70.5052 57.483 71.1327 56.9107 71.8743 56.5266C72.5578 56.1297 73.2422 55.8033 73.8815 55.4274C74.5103 55.0582 75.0982 54.6234 75.6351 54.1301C76.1509 53.6248 76.5964 53.0525 76.9595 52.4286C77.7097 51.171 78.2076 49.7794 78.4253 48.3316C78.534 47.6181 78.5572 46.8943 78.4944 46.1753C78.4388 45.479 78.2755 44.7955 78.0105 44.1491L78.8694 44.2734C77.3214 45.7594 75.4223 46.8299 73.3489 47.3851C72.8368 47.5275 72.316 47.6365 71.7897 47.7113C71.5209 47.7404 71.2747 47.7908 70.9869 47.8013L70.5553 47.8143C70.4109 47.8058 70.2663 47.7891 70.1219 47.7755C68.9832 47.6069 67.9377 47.0506 67.1621 46.2006C65.6511 44.588 64.8456 42.6126 64.1486 40.6759C63.4704 38.7228 62.9839 36.7234 62.4803 34.7616C62.3519 34.2729 62.2239 33.7863 62.0692 33.3251C61.9114 32.8549 61.7331 32.3864 61.5474 31.9205C61.1745 30.9886 60.7633 30.0681 60.3148 29.1682C59.8719 28.2679 59.3818 27.3916 58.8465 26.543C58.3323 25.7014 57.721 24.9229 57.0254 24.2235C56.703 23.8957 56.3187 23.635 55.8948 23.4565C55.7059 23.3879 55.5048 23.3596 55.3043 23.3736C55.1157 23.3988 54.9377 23.4753 54.7895 23.5945C54.4828 23.9047 54.2924 24.311 54.2505 24.745C54.1779 25.2264 54.1584 25.7143 54.1921 26.1999C54.3809 28.209 54.8144 30.1875 55.4829 32.0916L55.4692 32.0571L55.4743 32.0675L55.0645 32.1648C55.0639 32.1911 55.0687 32.2172 55.0787 32.2415C55.0886 32.2658 55.1035 32.2878 55.1224 32.3061L55.1021 32.2827C54.8363 31.8972 54.4694 31.5923 54.0416 31.4015C53.6118 31.2128 53.1423 31.1328 52.6743 31.1685L52.6538 31.1705L52.6416 31.1701C52.0795 31.1215 51.5146 31.2219 51.0038 31.4613C50.7668 31.5964 50.5635 31.7833 50.4092 32.0081C50.2549 32.233 50.1535 32.4898 50.1126 32.7593C50.0227 33.3286 50.0268 33.9087 50.1247 34.4766C50.2141 35.0594 50.3343 35.6371 50.4847 36.2072C50.6434 36.7862 50.7658 37.3745 50.8511 37.9688C50.8943 38.2688 50.9216 38.5709 50.933 38.8738C50.9636 39.2022 50.9124 39.5332 50.7838 39.837C50.7308 39.9254 50.6566 39.9992 50.5681 40.0519C50.4795 40.1047 50.3792 40.1347 50.2762 40.1394C50.1732 40.144 50.0707 40.1231 49.9777 40.0786C49.8848 40.034 49.8043 39.9672 49.7434 39.884C49.5653 39.6308 49.4089 39.3629 49.2761 39.0832C49.0193 38.5552 48.7319 38.0426 48.4153 37.548L48.5796 37.6363L48.5746 37.6364L48.4677 37.637L48.4088 37.5461C47.9777 36.779 47.2704 36.2049 46.4307 35.9404C46.2598 35.8667 46.0683 35.8557 45.8901 35.9096C45.7119 35.9635 45.5585 36.0786 45.4571 36.2346C45.2423 36.5993 45.1086 37.0059 45.0653 37.4268C45.0039 37.871 45.0016 38.3182 44.9763 38.7662C44.9718 39.2212 44.9884 39.6723 45.0196 40.1266C45.0832 41.0338 45.1923 41.9373 45.3463 42.8336L45.5054 43.7574L44.7756 43.1539C44.1056 42.5422 43.3197 42.0709 42.4642 41.768C42.0998 41.6457 41.7026 41.6653 41.352 41.8228C41.0243 42.0204 40.775 42.3251 40.6463 42.6853C40.4945 43.0641 40.4421 43.4755 40.4942 43.8803C40.5184 44.0858 40.5661 44.2878 40.6365 44.4825L40.8739 45.1611L41.8239 47.8759C42.4643 49.6833 43.081 51.499 43.6922 53.3163C44.0017 54.2275 44.2976 55.1369 44.6336 56.0052C44.9799 56.8798 45.3815 57.7365 45.8108 58.581C46.674 60.2703 47.6755 61.8914 48.6809 63.5207C49.1779 64.3453 49.6998 65.1345 50.1467 66.0404C50.2049 66.1645 50.2551 66.2922 50.2971 66.4227C50.3168 66.504 50.3341 66.5863 50.3487 66.668C50.3599 66.7428 50.3591 66.7915 50.3649 66.8545L50.4155 67.5701L50.5167 69.0015C50.7946 72.8184 51.0293 76.6395 51.2475 80.4667L51.144 80.4759Z" fill="#1C1C1C"/>
<path d="M57.3984 37.7503L55.0396 32.2572L55.5249 32.0736L57.3984 37.7503Z" fill="#1C1C1C"/>
<path d="M134.256 18.9851C132.343 19.7953 130.348 20.4765 128.351 21.1015C126.344 21.7201 124.303 22.2271 122.24 22.6201C120.165 23.0446 118.052 23.255 115.934 23.2479C114.86 23.2382 113.788 23.1283 112.734 22.9198C111.648 22.713 110.609 22.311 109.666 21.7331L109.712 21.7595C108.128 20.9694 106.535 20.1961 104.959 19.3885L104.433 19.1191L104.75 18.664C104.788 18.603 104.835 18.5484 104.891 18.5024C104.917 18.4774 104.946 18.4545 104.976 18.434C105.024 18.4011 105.08 18.3582 105.122 18.336C105.21 18.288 105.303 18.2287 105.386 18.1931C105.558 18.1085 105.727 18.0361 105.894 17.9728C106.229 17.8423 106.561 17.7267 106.895 17.6278C107.561 17.4168 108.231 17.2572 108.9 17.1007C110.24 16.792 111.584 16.5309 112.932 16.3173C114.28 16.091 115.629 15.8923 116.98 15.7091C118.33 15.5179 119.684 15.3587 121.036 15.1895L120.852 15.2902L123.617 12.1283C124.54 11.073 125.43 10.0016 126.384 8.95801C128.312 6.8931 130.545 5.13598 133.006 3.748C134.24 3.06184 135.523 2.46622 136.845 1.96587C138.171 1.47915 139.529 1.08109 140.909 0.774312C143.673 0.07177 146.537 -0.155085 149.377 0.103482C152.253 0.458575 154.994 1.52616 157.351 3.2092C159.696 4.91705 161.606 7.15189 162.927 9.73333C163.582 11.023 164.092 12.3808 164.448 13.7822L164.68 14.8414C164.744 15.1923 164.806 15.5405 164.859 15.8922C164.971 16.5937 165.062 17.2992 165.133 18.0086C165.285 19.4327 165.319 20.8668 165.236 22.2965C165.159 23.7481 164.894 25.1836 164.448 26.5672L164.269 27.1053L163.727 26.9425L156.404 24.7427L149.062 22.6065C146.614 21.8946 144.16 21.2037 141.696 20.5587C140.466 20.2268 139.232 19.9137 137.993 19.6197C137.372 19.4909 136.753 19.3247 136.127 19.2262L135.189 19.0582L134.256 18.9851ZM134.23 18.873L135.208 18.8831L136.163 18.9922C136.803 19.0596 137.427 19.1934 138.06 19.2909C139.318 19.5216 140.573 19.7684 141.82 20.0438C144.315 20.597 146.798 21.1961 149.275 21.8162C151.753 22.4346 154.216 23.1039 156.681 23.7686C159.144 24.4416 161.608 25.1066 164.06 25.8227L163.339 26.1978C164.162 23.6474 164.156 20.8513 163.909 18.129C163.843 17.4453 163.756 16.7629 163.648 16.0819C163.597 15.7417 163.536 15.4007 163.475 15.0634L163.26 14.0715C162.941 12.7548 162.479 11.4768 161.882 10.2601C160.672 7.82036 158.906 5.69881 156.725 4.06642C154.525 2.44687 151.962 1.38933 149.259 0.985879C146.516 0.661961 143.738 0.795108 141.038 1.37988C138.298 1.86787 135.654 2.7876 133.203 4.1047C130.753 5.43205 128.539 7.15602 126.653 9.20656C124.819 11.2989 123.07 13.5036 121.298 15.6664L121.231 15.7483L121.115 15.7673C119.774 15.9856 118.431 16.1957 117.094 16.434C115.755 16.6646 114.42 16.9103 113.092 17.1825C111.764 17.4517 110.441 17.7396 109.134 18.0628C108.481 18.2261 107.832 18.4041 107.2 18.6022C106.882 18.6975 106.572 18.8079 106.274 18.925C106.122 18.9829 105.98 19.0452 105.846 19.112C105.772 19.1435 105.724 19.1792 105.662 19.2116C105.639 19.225 105.617 19.2396 105.596 19.2554C105.584 19.2629 105.575 19.2698 105.581 19.2656C105.589 19.2533 105.562 19.2957 105.633 19.194L105.423 18.4697C107.009 19.2571 108.578 20.0787 110.155 20.8836L110.18 20.8964L110.201 20.91C111.837 21.9756 113.93 22.2827 115.955 22.3553C116.982 22.3804 118.011 22.35 119.035 22.2643C120.065 22.1902 121.093 22.0659 122.118 21.9063C124.169 21.5996 126.199 21.1343 128.22 20.634C130.244 20.126 132.234 19.5356 134.23 18.873Z" fill="#1C1C1C"/>
<path d="M146.905 3.19385C145.922 4.3478 144.915 5.46943 143.903 6.58501L140.871 9.92645C139.861 11.0383 138.858 12.157 137.864 13.2827C136.877 14.4154 135.9 15.5546 134.931 16.7206C135.651 15.3851 136.476 14.1092 137.399 12.9051C138.308 11.6906 139.295 10.5407 140.303 9.41187C141.324 8.29494 142.378 7.20888 143.476 6.16878C144.567 5.1184 145.711 4.12541 146.905 3.19385ZM152.153 3.74596C152.966 5.21998 153.685 6.74389 154.306 8.30857C154.937 9.86899 155.488 11.4598 155.959 13.0811C156.426 14.7033 156.79 16.3534 157.05 18.0215C157.308 19.6912 157.379 21.3843 157.264 23.0699C157.082 21.41 156.814 19.7606 156.461 18.1286C156.102 16.5036 155.68 14.8937 155.222 13.2929C154.769 11.6897 154.257 10.1028 153.745 8.51265C153.219 6.92762 152.7 5.33633 152.153 3.74596ZM121.075 15.4783C121.982 15.4909 122.888 15.5542 123.788 15.6682C124.685 15.769 125.574 15.914 126.462 16.0675C127.347 16.2351 128.23 16.4122 129.106 16.6332C129.988 16.8429 130.858 17.1025 131.711 17.4107C130.804 17.3991 129.898 17.3361 128.999 17.222C128.101 17.121 127.212 16.976 126.325 16.8215C125.44 16.653 124.556 16.4759 123.681 16.2547C122.799 16.0448 121.929 15.7856 121.075 15.4783ZM121.075 22.4399C121.09 23.2097 121.049 23.9781 120.994 24.7477C120.945 25.5244 120.834 26.2961 120.663 27.0554C120.578 27.4656 120.423 27.8581 120.205 28.2158C120.009 28.5086 119.818 28.8508 119.628 29.1766C119.244 29.8347 118.874 30.5044 118.504 31.1735C117.757 32.5078 117.023 33.8486 116.3 35.1961C115.946 35.8723 115.579 36.5422 115.24 37.2224C115.069 37.5618 114.907 37.9044 114.749 38.2445C114.671 38.415 114.597 38.586 114.534 38.7546C114.505 38.8372 114.471 38.9241 114.454 38.9979C114.444 39.029 114.437 39.0612 114.433 39.0939C114.432 39.1001 114.427 39.131 114.427 39.1174C114.427 39.1045 114.424 39.0918 114.417 39.0805C114.411 39.0693 114.402 39.0598 114.391 39.053L114.25 38.9542C114.512 39.0164 114.781 39.0417 115.05 39.0295C115.337 39.0181 115.623 38.9797 115.903 38.9147C116.188 38.8479 116.469 38.7635 116.744 38.662C117.021 38.5563 117.293 38.4355 117.557 38.3001L117.596 38.2806L117.621 38.2857C117.891 38.3367 118.144 38.4536 118.357 38.626C118.561 38.7975 118.706 39.0279 118.773 39.2854C118.673 39.0523 118.502 38.8561 118.285 38.7237C118.079 38.5935 117.844 38.5155 117.601 38.4963L117.665 38.4819C117.156 38.8347 116.6 39.1143 116.013 39.3124C115.711 39.4096 115.401 39.4781 115.087 39.5171C114.755 39.563 114.417 39.5519 114.088 39.4841L113.994 39.4631L113.947 39.3852C113.911 39.3226 113.885 39.254 113.872 39.1826C113.868 39.143 113.867 39.1031 113.871 39.0634C113.873 39.0004 113.881 38.9377 113.896 38.8764C113.917 38.7721 113.943 38.669 113.975 38.5675C114.035 38.3733 114.102 38.1876 114.172 38.0042C114.312 37.638 114.47 37.2835 114.63 36.9313C114.952 36.2282 115.285 35.5335 115.642 34.8513C116.344 33.4808 117.093 32.1388 117.866 30.8091C118.258 30.1474 118.657 29.4904 119.069 28.8375C119.279 28.5097 119.485 28.1945 119.735 27.8634C119.928 27.5718 120.074 27.2516 120.167 26.9146C120.577 25.4468 120.881 23.9514 121.075 22.4399Z" fill="#1C1C1C"/>
<path d="M123.009 41.1975C120.799 37.7929 117.611 39.2854 117.611 39.2854C117.611 39.2854 116.379 56.1965 123.93 56.6566C129.676 57.0068 134.621 53.5197 138.097 49.7647C139.898 47.8101 141.038 45.3388 141.355 42.7009C141.826 38.8492 142.535 33.0302 142.715 31.3515C142.991 28.775 144.036 22.0288 147.779 22.4399C147.779 22.4399 155.606 22.5178 151.555 36.0445C151.555 36.0445 150.45 44.5102 157.632 43.498C157.632 43.498 156.159 39.2651 158.093 36.0445C160.026 32.8239 162.569 28.7522 162.449 25.957C162.449 25.957 137.098 18.469 134.243 18.9291C136 19.8559 137.413 21.3213 138.275 23.11C139.137 24.8988 139.402 26.9166 139.032 28.8671C138.189 34.337 134.138 41.6775 132.259 44.8605C131.961 45.3682 131.53 45.7857 131.014 46.0687C130.497 46.3516 129.914 46.4893 129.325 46.4673C128.236 46.4235 126.987 46.2642 126.393 45.7985C125.219 44.8783 123.009 41.1975 123.009 41.1975Z" fill="#1C1C1C"/>
<path d="M122.738 24.975C123.276 24.5609 123.892 24.259 124.549 24.0873C125.218 23.8993 125.917 23.8411 126.607 23.9157C127.313 24.0001 127.985 24.2675 128.555 24.6915C129.11 25.1053 129.536 25.6679 129.783 26.3138C129.317 25.8767 128.797 25.5015 128.236 25.1973C127.697 24.9225 127.113 24.746 126.512 24.6761C125.897 24.608 125.276 24.6069 124.661 24.6728C124.032 24.7386 123.396 24.8417 122.738 24.975ZM144.464 34.3882C145.699 34.8719 147.127 34.8173 148.042 34.0075C148.503 33.5991 148.871 33.0968 149.121 32.5342C149.39 31.9559 149.606 31.3542 149.766 30.7365C150.122 29.4909 150.332 28.2083 150.393 26.9144C150.422 26.2649 150.405 25.6143 150.344 24.967C150.314 24.6416 150.267 24.318 150.203 23.9974C150.174 23.8354 150.133 23.6776 150.09 23.5185C150.056 23.3577 149.991 23.2051 149.897 23.0699C150.129 23.3179 150.302 23.6137 150.407 23.9363C150.53 24.2515 150.633 24.5742 150.716 24.9024C150.872 25.5624 150.965 26.236 150.992 26.9139C151.041 28.2739 150.877 29.6333 150.505 30.9424C150.136 32.2142 149.599 33.6219 148.402 34.4823C147.814 34.9035 147.097 35.1071 146.375 35.0581C145.689 35.0128 145.028 34.7811 144.464 34.3882ZM135.531 52.2204C135.983 52.4958 136.4 52.8236 136.775 53.1968C137.152 53.5596 137.499 53.9518 137.813 54.3697C138.132 54.7915 138.407 55.2448 138.634 55.7227C138.898 56.204 139.005 56.7558 138.939 57.3008C138.718 56.8457 138.443 56.4189 138.12 56.0295C137.816 55.6298 137.498 55.2371 137.199 54.8285C136.895 54.4229 136.599 54.0075 136.316 53.5782C136.022 53.1454 135.76 52.6915 135.531 52.2204ZM157.632 43.498C158.12 44.2522 158.564 45.0336 158.963 45.8383C159.165 46.2231 159.364 46.6029 159.589 46.9648C159.811 47.346 160.082 47.6963 160.395 48.0069C159.907 47.9391 159.459 47.7046 159.125 47.3434C158.784 47.009 158.5 46.6211 158.284 46.195C158.068 45.7812 157.901 45.3432 157.788 44.8902C157.664 44.437 157.611 43.9673 157.632 43.498Z" fill="#1C1C1C"/>
<path d="M168.868 41.5631C168.868 41.5631 159.987 42.2115 158.487 45.7543L158.757 46.2626L159.748 45.7543C164.514 43.3838 167.207 46.5324 163.896 47.0874C160.579 47.6372 140.828 56.6782 140.828 56.6782C132.264 59.1006 127.244 72.1149 127.244 72.1149C128.625 71.5236 130.032 70.9945 131.428 70.4291C132.861 69.9675 134.283 69.4695 135.731 69.0597C138.639 68.2393 141.604 67.6376 144.602 67.2598C147.605 66.8736 150.639 66.7798 153.66 66.9797C154.412 67.0627 155.165 67.1094 155.918 67.2183C156.66 67.348 157.413 67.4362 158.15 67.6125C159.632 67.9037 161.076 68.3649 162.453 68.9871C161.021 68.5594 159.553 68.2659 158.067 68.1105C157.33 67.9964 156.582 67.9601 155.845 67.8926C155.103 67.846 154.361 67.82 153.618 67.7837C150.646 67.7386 147.675 67.9068 144.727 68.2869L142.515 68.5721L140.315 68.9612L139.214 69.1427L138.124 69.3814C137.392 69.5422 136.666 69.6978 135.934 69.8482C134.48 70.1854 133.037 70.5692 131.579 70.9167C130.136 71.3109 128.703 71.7467 127.244 72.115C104.779 75.7977 82.859 89.6005 81.39 89.2322C79.9158 88.8639 78.6234 77.2709 78.6234 74.2883C78.6234 71.3109 78.0732 65.6726 73.6507 65.6726C69.2335 65.6726 69.7837 69.537 69.7837 69.537C78.0732 71.7467 58.9196 73.4065 53.2098 74.1379C47.5001 74.8744 50.6301 72.6699 50.6301 72.6699C50.6301 72.6699 48.9742 70.9012 47.199 73.1005C46.645 73.8099 46.2715 74.643 46.1106 75.5284C45.9497 76.4138 46.0061 77.325 46.2751 78.1838C46.8409 80.0719 47.6766 82.9352 48.2372 85.1812C49.1611 88.864 52.4727 115.365 53.5784 117.943C54.684 120.515 77.5178 127.326 126.139 123.83C130.079 123.213 134.003 122.559 137.927 121.906C141.846 121.236 145.765 120.552 149.653 119.758C151.599 119.369 153.546 118.964 155.471 118.503C157.407 118.062 159.328 117.573 161.233 117.035C163.139 116.5 165.017 115.87 166.86 115.147C168.726 114.476 170.464 113.492 171.998 112.237C171.322 112.976 170.547 113.619 169.694 114.146C168.85 114.69 167.973 115.18 167.067 115.614C165.249 116.46 163.38 117.192 161.472 117.808C157.661 119.018 153.784 120.008 149.86 120.775C145.941 121.553 142.003 122.196 138.046 122.704C134.091 123.228 130.12 123.612 126.139 123.83C126.139 123.83 124.369 134.583 123.445 144.257H192.699C192.626 134.811 192.611 122.295 192.901 111.039C193.452 89.3256 192.901 79.1071 192.901 79.1071C191.906 78.9972 190.922 78.7957 189.963 78.5054C189.003 78.2305 188.064 77.9037 187.124 77.5665C185.25 76.8922 183.423 76.1038 181.606 75.2946C179.8 74.4699 178.014 73.6088 176.255 72.6804C174.495 71.7622 172.756 70.7923 171.075 69.7237C172.948 70.4084 174.781 71.1709 176.603 71.9542C178.425 72.7271 180.226 73.5466 182.037 74.3506L187.43 76.8196C189.242 77.6184 191.012 78.4795 192.901 79.1071C192.901 79.1071 202.016 83.2516 202.847 72.7582C203.672 62.2699 193.727 39.6335 168.868 41.5631ZM172.694 75.6421C173.61 76.5063 174.409 77.4863 175.071 78.5572C175.398 79.0915 175.679 79.6569 175.974 80.2171C176.229 80.7929 176.436 81.3842 176.675 81.9704C176.788 82.2639 176.878 82.5656 176.945 82.8729L177.184 83.7858C177.345 84.3923 177.463 85.0093 177.537 85.6324L177.661 86.5661L177.724 87.0329L177.745 87.4997L177.807 89.3723L177.822 89.8391L177.791 90.3059L177.724 91.2396C177.682 91.862 177.641 92.4793 177.573 93.0966C177.366 94.3207 177.168 95.5449 176.904 96.7535C176.566 97.9465 176.239 99.1343 175.865 100.307C176.016 99.0773 176.208 97.8687 176.4 96.6601C176.545 95.4463 176.629 94.2273 176.769 93.0188L176.815 91.1981L176.841 90.2904L176.857 89.8391L176.826 89.3878L176.732 87.5776L176.712 87.1263L176.644 86.6802L176.509 85.788C176.205 83.4034 175.482 81.0911 174.376 78.9567C173.803 77.8988 173.117 76.9057 172.331 75.9948C171.546 75.0626 170.628 74.2515 169.606 73.588C170.752 74.0783 171.799 74.7746 172.694 75.6421ZM185.78 54.6345C185.408 55.4158 184.772 56.0405 183.984 56.3981C183.594 56.5759 183.184 56.7082 182.764 56.7923C182.344 56.8518 181.921 56.8882 181.497 56.9013C181.077 56.8805 180.651 56.8805 180.236 56.8287L179.001 56.6264C178.591 56.5434 178.196 56.4241 177.791 56.3203L176.623 56.0039C175.862 55.8053 175.086 55.6666 174.303 55.5889C172.717 55.4411 171.12 55.4359 169.533 55.5734C166.325 55.8628 163.146 56.4144 160.029 57.2229C158.461 57.6171 156.894 58.0424 155.342 58.5041C153.779 58.945 152.243 59.4533 150.696 59.9668C153.637 58.5508 156.687 57.3731 159.816 56.4448C162.952 55.4777 166.181 54.8397 169.45 54.5412C171.104 54.4098 172.767 54.4342 174.417 54.6138C175.248 54.7205 176.069 54.8922 176.873 55.1273L179.182 55.8379L180.34 56.0869C180.729 56.1543 181.118 56.1699 181.508 56.2217C181.897 56.2477 182.286 56.2165 182.67 56.2062C183.051 56.1551 183.426 56.0629 183.786 55.9313C184.521 55.6789 185.141 55.1731 185.536 54.5048C185.74 54.1656 185.894 53.7987 185.993 53.4155C186.109 53.0283 186.172 52.6269 186.179 52.2225C186.27 53.0479 186.131 53.8823 185.78 54.6345H185.78Z" fill="#1C1C1C"/>
<path d="M94.2793 144.258C104.5 143.962 114.722 143.763 124.943 143.662C130.053 143.592 135.164 143.576 140.275 143.534L155.606 143.492L170.938 143.532C176.049 143.575 181.159 143.589 186.27 143.66C196.491 143.76 206.712 143.96 216.933 144.258C206.712 144.556 196.491 144.756 186.27 144.857C181.159 144.928 176.049 144.942 170.938 144.984L155.606 145.025L140.275 144.982C135.164 144.941 130.053 144.925 124.943 144.854C114.722 144.753 104.5 144.555 94.2793 144.258ZM124.459 30.5297C126.463 30.5297 126.467 27.4175 124.459 27.4175C122.455 27.4175 122.452 30.5297 124.459 30.5297Z" fill="#1C1C1C"/>
</svg>
