<svg width="22" height="23" viewBox="0 0 22 23" fill="none" xmlns="http://www.w3.org/2000/svg">
<path d="M11 22.2012C16.9941 22.2012 21.957 17.2275 21.957 11.2441C21.957 5.25 16.9834 0.287109 10.9893 0.287109C5.00586 0.287109 0.0429688 5.25 0.0429688 11.2441C0.0429688 17.2275 5.0166 22.2012 11 22.2012ZM11 20.375C5.92969 20.375 1.87988 16.3145 1.87988 11.2441C1.87988 6.17383 5.91895 2.11328 10.9893 2.11328C16.0596 2.11328 20.1309 6.17383 20.1309 11.2441C20.1309 16.3145 16.0703 20.375 11 20.375ZM7.90625 16.7871L10.9893 14.5205L14.0723 16.7871C14.7061 17.2598 15.3613 16.7656 15.125 16.0352L13.9004 12.3936L17.0156 10.1699C17.585 9.75098 17.4131 8.91309 16.6182 8.92383L12.7939 8.95605L11.623 5.29297C11.3975 4.58398 10.5811 4.58398 10.3555 5.29297L9.18457 8.95605L5.36035 8.92383C4.57617 8.91309 4.38281 9.74023 4.96289 10.1699L8.07812 12.3936L6.86426 16.0352C6.61719 16.7656 7.2832 17.2598 7.90625 16.7871Z" fill="#F3634A"/>
</svg>
