<svg width="325" height="314" viewBox="0 0 325 314" fill="none" xmlns="http://www.w3.org/2000/svg">
<path d="M100.346 50.9015C100.577 53.4193 100.633 55.9502 100.513 58.4757C100.449 59.7537 100.311 61.0269 100.101 62.2891C99.9852 62.9367 99.8292 63.5764 99.6341 64.2047C99.532 64.5336 99.4088 64.8555 99.265 65.1684L99.0884 65.5626C99.046 65.6722 99.0122 65.7849 98.9875 65.8997C98.8444 66.9565 99.083 68.0298 99.6603 68.9264C100.246 69.9598 100.943 70.9264 101.738 71.8089L102.341 72.4871L102.653 72.8179L102.812 72.9811C102.9 73.0707 102.981 73.1675 103.053 73.2705C103.344 73.6883 103.468 74.2002 103.399 74.7049C103.365 74.9523 103.285 75.1911 103.163 75.4091C103.066 75.5708 102.959 75.7264 102.842 75.8749C102.025 77.0436 100.804 77.8685 99.4145 78.1908L99.8027 77.8719C98.7291 79.9215 97.537 81.9068 96.2323 83.8176C94.9771 85.7675 93.4986 87.564 91.8267 89.1708C90.96 89.9931 89.9556 90.6569 88.8593 91.1319C88.2802 91.3669 87.6659 91.5036 87.0418 91.5364C86.7228 91.5481 86.4034 91.5305 86.0877 91.4837L85.219 91.3287C84.0536 91.1229 82.9085 90.8153 81.7969 90.4094C81.2117 90.1873 80.653 89.901 80.1309 89.5557C79.8414 89.3644 79.577 89.1376 79.3437 88.8807C79.2081 88.7341 79.0908 88.5717 78.9943 88.397C78.9368 88.2972 78.8888 88.1923 78.8506 88.0836C78.7908 87.9234 78.7619 87.7532 78.7654 87.5821L80.0001 88.2783C78.3818 89.6091 77.0309 91.235 76.0191 93.0697C75.5081 93.9831 75.0944 94.9475 74.7846 95.9472C74.4766 96.9431 74.2532 97.9632 74.1167 98.9967L74.1088 99.0466C74.0765 99.2504 73.9815 99.439 73.8369 99.5862C73.6924 99.7334 73.5055 99.8318 73.3024 99.8677C73.0993 99.9036 72.89 99.8753 72.7038 99.7866C72.5175 99.6979 72.3636 99.5533 72.2634 99.373C71.0875 97.2215 70.1302 94.9575 69.4058 92.6151C68.6664 90.2892 68.164 87.8945 67.9059 85.4676C67.6272 83.0386 67.6935 80.5823 68.1029 78.1718C68.4983 75.775 69.331 73.4714 70.5596 71.3758C70.5722 71.3544 70.5927 71.3388 70.6168 71.3325C70.6409 71.3263 70.6664 71.3298 70.6879 71.3423C70.707 71.3544 70.7213 71.3726 70.7284 71.394C70.7356 71.4154 70.735 71.4386 70.727 71.4597C70.2888 72.5574 69.9309 73.6855 69.6559 74.8349C69.3986 75.9768 69.2201 77.1351 69.1218 78.3015C68.9633 80.6267 69.0749 82.9626 69.4544 85.2621C69.8451 87.5594 70.4348 89.8184 71.2169 92.0134C71.9779 94.2022 72.9053 96.3295 73.9908 98.3768L72.1375 98.753C72.4515 96.423 73.2327 94.1803 74.4344 92.1596C75.024 91.1544 75.7122 90.2105 76.4889 89.3418C77.2635 88.4519 78.1422 87.6582 79.106 86.9777L80.3408 87.674C80.3402 87.5166 80.333 87.5979 80.338 87.5917C80.3449 87.6189 80.3553 87.645 80.3689 87.6695C80.4057 87.7481 80.4532 87.8212 80.5099 87.887C80.6534 88.0615 80.8182 88.2172 81.0006 88.3506C81.4199 88.6576 81.8706 88.919 82.3453 89.1303C83.3526 89.5922 84.3983 89.9652 85.4705 90.2452C87.5373 91.0888 89.6977 90.1249 91.3984 88.6789C93.0932 87.1758 94.5503 85.4241 95.7198 83.4838C96.9063 81.5497 97.929 79.5197 98.7773 77.4151C98.8074 77.3415 98.8538 77.2757 98.913 77.2227C98.9723 77.1697 99.0427 77.1308 99.1192 77.1091L99.1657 77.096C100.221 76.7432 101.109 76.0139 101.66 75.0475C101.729 74.9428 101.792 74.8343 101.849 74.7227C101.874 74.6623 101.887 74.5975 101.887 74.5322C101.889 74.407 101.848 74.2848 101.772 74.1857C101.751 74.162 101.73 74.1395 101.707 74.1184L101.53 73.952L101.18 73.6138C100.949 73.3856 100.721 73.1542 100.501 72.9147C99.5965 71.9478 98.8199 70.8684 98.1908 69.7031C97.4394 68.442 97.1802 66.9477 97.463 65.5071C97.5146 65.3177 97.5807 65.1325 97.6608 64.9533L97.8893 64.4982C98.0194 64.2466 98.1328 63.9867 98.2289 63.7202C98.4318 63.1583 98.6 62.5845 98.7327 62.002C99.0163 60.803 99.2377 59.5902 99.3961 58.3683C99.7393 55.9068 99.9717 53.4094 100.158 50.9048C100.16 50.8799 100.171 50.8566 100.189 50.84C100.208 50.8234 100.232 50.8148 100.257 50.8162C100.28 50.8178 100.301 50.8272 100.317 50.8428C100.333 50.8584 100.343 50.8792 100.346 50.9015Z" fill="#1C1C1C"/>
<path d="M73.1272 75.4629C73.4508 77.204 73.9986 78.8959 74.757 80.4961C75.1357 81.2711 75.6056 81.998 76.1567 82.6614C76.7333 83.3409 77.3709 83.9662 78.0615 84.5293C77.1586 84.2672 76.3277 83.8021 75.632 83.1696C74.9224 82.535 74.3414 81.7698 73.9209 80.9157C73.5049 80.0703 73.2216 79.1659 73.0811 78.2342C72.9293 77.3152 72.9449 76.3763 73.1272 75.4629Z" fill="#1C1C1C"/>
<path d="M70.6434 71.4177C63.5766 88.0429 73.1273 98.8749 73.1273 98.8749C55.6515 95.1141 46.5777 105.632 46.5777 105.632C41.8689 95.5547 31.0142 97.0387 31.0142 97.0387C31.0142 97.0387 24.3588 90.1528 32.8503 84.5293C38.7943 80.5929 39.5654 76.9376 39.4931 75.0987C39.3929 73.4379 39.5887 71.7725 40.0713 70.1803C40.8245 67.8728 41.9641 65.71 43.4415 63.7842C45.8676 60.6711 47.6913 57.1323 48.8189 53.3498C51.236 45.0168 56.9546 31.7503 68.7462 32.5408C71.7303 32.2584 74.7396 32.4131 77.6791 32.9999C81.717 33.8573 85.5577 35.4664 89.001 37.7435C93.2739 40.3842 97.0534 43.7501 100.17 47.6898C100.531 51.0739 99.7791 54.4836 98.0279 57.4017C94.8461 62.5478 89.4217 64.1098 86.4042 64.5837C85.3787 64.763 84.3244 64.6757 83.3424 64.3301C82.3604 63.9845 81.4837 63.3922 80.7964 62.6102C80.3105 62.0349 79.9448 61.3679 79.7211 60.6488C79.4442 59.5955 78.9567 58.6092 78.2881 57.7496C77.6194 56.89 76.7835 56.1749 75.8308 55.6474C73.4758 54.4816 70.5933 54.8339 69.2259 61.9206C68.0877 67.8191 69.142 70.3819 70.6434 71.4177ZM177.586 174.846C174.391 175.404 171.166 175.778 167.928 175.966C164.708 176.181 161.488 176.294 158.267 176.306C155.046 176.323 151.825 176.221 148.604 176.026C145.365 175.858 142.138 175.501 138.94 174.959C142.135 174.398 145.36 174.022 148.598 173.835C151.818 173.622 155.038 173.501 158.259 173.499C161.479 173.487 164.699 173.582 167.921 173.783C171.16 173.952 174.387 174.307 177.586 174.846Z" fill="#1C1C1C"/>
<path d="M104.439 175.165C98.1401 175.69 91.8224 175.963 85.5019 176.153L83.1312 176.225L81.9456 176.257C81.5302 176.28 81.1136 176.271 80.6995 176.231C78.8735 176.082 77.1157 175.47 75.5915 174.454C74.1439 173.494 72.8557 172.314 71.7737 170.956C70.6862 169.636 69.7473 168.201 68.974 166.677C68.9454 166.62 68.9218 166.562 68.9034 166.501L68.884 166.436C67.0399 160.244 65.1554 154.045 63.2303 147.838C62.2464 144.742 61.225 141.654 60.166 138.577L58.4722 134.001L56.6508 129.475C55.3855 126.478 54.0809 123.497 52.6916 120.555C51.3063 117.611 49.8373 114.706 48.3697 111.803C46.8878 108.907 45.3769 106.028 43.837 103.164C43.2295 101.945 42.3056 100.911 41.162 100.172C40.0183 99.4316 38.6969 99.0125 37.3359 98.9582L27.6977 99.3175C24.4276 99.4149 21.1535 99.4774 17.8658 99.4673C14.5741 99.4105 11.2899 99.3135 7.91702 98.9253C7.07195 98.8141 6.22085 98.6811 5.33576 98.486C4.86951 98.3858 4.40897 98.2607 3.95611 98.1112C3.34502 97.9231 2.77093 97.631 2.25902 97.2479C2.03903 97.0711 1.8437 96.8656 1.67828 96.6369C1.43886 96.301 1.28224 95.9132 1.22116 95.5052C1.1951 95.2865 1.19406 95.0657 1.21808 94.8468L1.28407 94.5314C1.32463 94.331 1.38408 94.1349 1.46164 93.9458C1.58396 93.6446 1.73589 93.3564 1.91522 93.0853C2.06065 92.8519 2.22311 92.6296 2.40127 92.4201C3.00663 91.7077 3.67509 91.0516 4.3985 90.4595C7.04914 88.4221 9.83148 86.562 12.7273 84.8914L21.1544 79.9653C22.5384 79.1404 23.914 78.2964 25.2046 77.4003C25.5357 77.1774 25.8304 76.95 26.1578 76.7129L27.2399 75.9582C27.617 75.7329 28.0078 75.5299 28.3895 75.3184C28.7812 75.1247 29.1912 74.9682 29.5912 74.7994C31.2097 74.2172 32.9231 73.9442 34.6424 73.9945C36.3204 74.0125 37.9822 74.3251 39.552 74.9182C39.5955 74.935 39.6312 74.9675 39.6519 75.0093C39.6727 75.0511 39.6772 75.0991 39.6643 75.144C39.6515 75.1889 39.6224 75.2274 39.5826 75.2519C39.5429 75.2764 39.4955 75.2851 39.4496 75.2764L39.4327 75.2732C36.339 74.6044 33.1109 74.9779 30.2515 76.3355C29.9226 76.5279 29.5806 76.6901 29.2622 76.8924L28.3361 77.5384L27.4825 78.2728C27.176 78.5464 26.8532 78.8502 26.533 79.1162C25.248 80.2138 23.907 81.172 22.5713 82.1361C19.8998 84.0565 17.1573 85.8203 14.4894 87.6587C11.8267 89.3844 9.2717 91.271 6.83877 93.308C6.31223 93.7603 5.82601 94.2576 5.38559 94.7942C5.30022 94.8953 5.22452 95.0041 5.15949 95.1192C5.11358 95.1874 5.07546 95.2605 5.04582 95.3371C5.01476 95.3805 5.06198 95.3369 5.05171 95.3353C5.05208 95.3286 5.05 95.3219 5.04582 95.3166C5.06377 95.1992 5.06284 95.0796 5.04309 94.9625C5.01723 94.6738 4.88331 94.4054 4.66813 94.2112C4.62185 94.176 4.88063 94.3196 5.16445 94.3949C5.48794 94.491 5.81627 94.5699 6.14805 94.6315C6.85688 94.7688 7.61871 94.8707 8.3901 94.9514C11.4896 95.3035 14.7235 95.4202 17.9405 95.5017C21.1642 95.6128 24.4035 95.6529 27.6449 95.6579L32.5102 95.637L34.9441 95.6077C35.7655 95.608 36.5086 95.5493 37.5373 95.6176C39.448 95.7557 41.2833 96.4192 42.8407 97.5348C44.3981 98.6504 45.617 100.175 46.3627 101.939C47.6708 104.935 48.933 107.948 50.1875 110.962L53.9188 120.013L57.6997 129.034C62.6925 141.058 68.6292 152.81 72.0993 165.508L72.0096 165.268C73.2313 167.863 75.0518 170.131 77.3214 171.885C78.3877 172.683 79.6403 173.195 80.96 173.372C81.3275 173.425 81.6985 173.45 82.0698 173.445L83.2455 173.49L85.5973 173.589C91.8702 173.85 98.1456 174.194 104.44 174.79C104.489 174.794 104.535 174.818 104.567 174.856C104.6 174.894 104.615 174.943 104.611 174.993C104.607 175.037 104.588 175.078 104.556 175.11C104.525 175.141 104.484 175.161 104.439 175.165Z" fill="#1C1C1C"/>
<path d="M144.033 166.45C149.191 166.306 154.347 166.223 159.504 166.143L167.239 166.016L171.105 165.963C172.45 165.923 173.796 166.008 175.125 166.217C177.816 166.647 180.398 167.596 182.727 169.011C183.324 169.374 183.838 169.727 184.382 170.082C184.966 170.46 185.525 170.875 186.056 171.324C188.217 173.184 189.765 175.656 190.495 178.413C190.678 179.1 190.808 179.801 190.883 180.508C190.934 180.861 190.938 181.218 190.962 181.573L190.992 182.55L191.182 190.284L191.535 205.752L191.816 221.221C192.011 231.533 192.12 241.847 192.144 252.162L192.108 267.635L192.096 271.504C192.089 272.156 192.101 272.775 192.08 273.456C192.01 276.999 190.611 280.387 188.161 282.947C186.226 284.966 183.721 286.345 180.98 286.899C179.652 287.13 178.304 287.224 176.957 287.18L173.086 287.184L157.606 287.164C147.288 287.14 136.971 287.042 126.654 286.871C116.337 286.676 106.015 286.51 95.6986 286.055C85.383 285.623 75.0593 285.136 64.7618 284.23C62.1858 284.027 59.6148 283.756 57.0404 283.522C54.4684 283.297 51.8907 283.015 49.3108 282.72L45.442 282.286L44.4751 282.174L43.9916 282.118C43.8683 282.102 43.7461 282.079 43.6255 282.049L43.3216 281.974C42.5825 281.768 41.8674 281.484 41.1884 281.126C39.8413 280.42 38.6451 279.457 37.6667 278.293C36.7132 277.129 35.9758 275.804 35.4892 274.38C34.6771 271.668 34.4297 268.818 34.7625 266.006C34.935 263.552 34.9497 260.97 34.9492 258.426C34.9227 253.314 34.7359 248.186 34.4462 243.065C34.1438 237.944 33.7684 232.827 33.32 227.714C32.8681 222.601 32.2728 217.503 31.6519 212.409C31.024 207.316 30.2989 202.236 29.4766 197.17C28.6288 192.11 27.727 187.059 26.7054 182.032C24.7136 171.967 22.1842 162.016 19.1282 152.221C17.6082 147.323 15.9202 142.482 14.1338 137.674C12.2592 132.904 10.3354 128.142 8.08481 123.533C7.02675 121.193 5.79115 118.947 4.6383 116.652C3.36497 114.36 2.30992 111.954 1.48706 109.464C0.701219 106.96 0.213183 104.371 0.0330361 101.752C-0.0673108 100.423 0.061355 99.086 0.413424 97.8001C0.598341 97.1411 0.922287 96.5295 1.36345 96.0063C1.82058 95.4897 2.41267 95.1109 3.0732 94.9123C3.09638 94.9038 3.121 94.9001 3.14564 94.9012C3.17029 94.9023 3.19448 94.9083 3.2168 94.9188C3.23913 94.9293 3.25916 94.9441 3.27573 94.9624C3.2923 94.9807 3.30509 95.0021 3.31338 95.0253C3.32166 95.0485 3.32527 95.0732 3.32399 95.0978C3.32271 95.1225 3.31656 95.1466 3.30591 95.1689C3.29526 95.1911 3.28031 95.2111 3.26193 95.2275C3.24355 95.244 3.22209 95.2567 3.1988 95.2648L3.18618 95.2693C2.62073 95.4925 2.12241 95.8578 1.73942 96.3299C1.35644 96.802 1.10172 97.365 0.999943 97.9644C0.750662 99.1905 0.703171 100.449 0.859334 101.691C1.15892 104.212 1.7532 106.69 2.62999 109.073C3.54514 111.443 4.68157 113.721 6.02421 115.877C7.31438 118.124 8.61892 120.369 9.77933 122.687C14.5626 131.899 18.619 141.47 21.9115 151.314C28.4321 171.018 33.0208 191.309 35.6125 211.902C36.9221 222.183 37.8864 232.509 38.343 242.869C38.5722 248.049 38.6977 253.234 38.6609 258.436C38.6274 261.047 38.5871 263.627 38.3658 266.316C38.297 267.031 38.288 267.538 38.2439 268.156C38.201 268.741 38.2021 269.328 38.2472 269.912C38.2921 271.045 38.4862 272.167 38.8244 273.25C39.4652 275.317 40.8846 277.053 42.7826 278.093C43.2416 278.343 43.7257 278.544 44.2267 278.693L44.3916 278.737C44.4263 278.749 44.4628 278.757 44.4997 278.758L44.976 278.819L45.9286 278.942L49.7374 279.445C52.2743 279.789 54.8161 280.123 57.3761 280.403C59.9317 280.691 62.4835 281.015 65.0432 281.272C75.2778 282.338 85.5347 283.276 95.8112 284.008C116.364 285.474 136.961 286.121 157.603 285.95C162.757 285.908 167.909 285.787 173.061 285.645L176.923 285.505C178.155 285.505 179.384 285.379 180.591 285.129C181.75 284.835 182.863 284.382 183.899 283.785C184.913 283.162 185.835 282.4 186.638 281.523C188.226 279.759 189.242 277.556 189.552 275.203C189.632 274.623 189.668 274.038 189.659 273.452C189.659 272.844 189.625 272.174 189.609 271.537L189.49 267.671L189.028 252.204C188.774 241.892 188.598 231.58 188.501 221.266L188.355 205.795L188.281 190.323L188.258 182.587L188.255 181.63C188.242 181.342 188.251 181.052 188.216 180.765C188.171 180.189 188.082 179.616 187.95 179.053C187.682 177.922 187.247 176.837 186.66 175.833C186.065 174.828 185.325 173.916 184.464 173.127C184.021 172.73 183.554 172.363 183.064 172.026L181.506 170.945C179.463 169.596 177.177 168.657 174.776 168.179C173.564 167.941 172.332 167.817 171.097 167.809L167.23 167.685L159.495 167.416C154.34 167.24 149.184 167.062 144.029 166.824C143.981 166.822 143.935 166.801 143.902 166.766C143.869 166.73 143.85 166.684 143.851 166.635C143.851 166.587 143.87 166.54 143.904 166.506C143.938 166.471 143.984 166.451 144.033 166.45L144.033 166.45Z" fill="#1C1C1C"/>
<path d="M181.309 186.125L181.406 188.932C181.407 188.952 181.403 188.972 181.396 188.991C181.389 189.01 181.379 189.027 181.365 189.042C181.351 189.056 181.335 189.068 181.317 189.076C181.299 189.085 181.279 189.089 181.259 189.09C181.239 189.091 181.219 189.088 181.2 189.081C181.182 189.074 181.164 189.063 181.15 189.049C181.135 189.036 181.123 189.019 181.115 189.001C181.107 188.983 181.102 188.963 181.101 188.943L181.101 188.937L181.121 186.128C181.121 186.103 181.131 186.08 181.148 186.062C181.166 186.045 181.189 186.035 181.214 186.035C181.238 186.034 181.262 186.044 181.28 186.061C181.297 186.078 181.308 186.101 181.309 186.125ZM181.501 191.74L181.585 194.547C181.586 194.581 181.581 194.614 181.569 194.645C181.557 194.677 181.539 194.705 181.516 194.73C181.494 194.754 181.466 194.774 181.436 194.787C181.405 194.801 181.372 194.809 181.339 194.81C181.305 194.811 181.272 194.805 181.241 194.793C181.21 194.781 181.181 194.763 181.157 194.74C181.132 194.717 181.113 194.69 181.099 194.659C181.086 194.629 181.078 194.596 181.078 194.562L181.077 194.554L181.083 191.746C181.084 191.691 181.105 191.638 181.144 191.599C181.182 191.56 181.235 191.537 181.29 191.537C181.344 191.536 181.397 191.557 181.437 191.595C181.477 191.633 181.5 191.685 181.501 191.74ZM181.668 197.355L181.752 200.162C181.754 200.253 181.721 200.341 181.658 200.408C181.596 200.474 181.51 200.512 181.419 200.515C181.328 200.518 181.24 200.484 181.173 200.422C181.107 200.359 181.068 200.273 181.066 200.182L181.066 200.171L181.071 197.363C181.072 197.284 181.103 197.209 181.158 197.154C181.213 197.098 181.288 197.066 181.366 197.065C181.444 197.064 181.52 197.094 181.576 197.148C181.633 197.202 181.666 197.276 181.668 197.355ZM181.835 202.969L181.919 205.777C181.921 205.891 181.878 206.001 181.799 206.084C181.721 206.166 181.613 206.214 181.499 206.218C181.385 206.221 181.274 206.179 181.191 206.102C181.108 206.024 181.059 205.916 181.054 205.802L181.054 205.789L181.06 202.98C181.06 202.879 181.101 202.781 181.172 202.709C181.244 202.637 181.341 202.596 181.442 202.595C181.544 202.593 181.642 202.632 181.715 202.702C181.789 202.772 181.832 202.868 181.835 202.969H181.835ZM181.99 208.584L182.058 211.392C182.061 211.523 182.012 211.65 181.921 211.745C181.831 211.84 181.707 211.895 181.575 211.898C181.444 211.901 181.318 211.852 181.223 211.762C181.128 211.671 181.073 211.547 181.07 211.416V211.406L181.059 208.597C181.059 208.475 181.107 208.357 181.193 208.269C181.279 208.182 181.396 208.132 181.519 208.13C181.641 208.128 181.76 208.175 181.848 208.26C181.936 208.345 181.988 208.462 181.99 208.584ZM182.125 214.2L182.193 217.007C182.196 217.153 182.141 217.295 182.04 217.401C181.94 217.507 181.801 217.568 181.655 217.572C181.508 217.575 181.367 217.521 181.261 217.42C181.155 217.319 181.094 217.18 181.09 217.034L181.09 217.022L181.08 214.214C181.079 214.076 181.133 213.944 181.229 213.845C181.326 213.747 181.457 213.691 181.595 213.689C181.733 213.687 181.866 213.74 181.965 213.835C182.064 213.931 182.122 214.062 182.125 214.2ZM182.26 219.815L182.327 222.623C182.329 222.702 182.315 222.782 182.286 222.857C182.258 222.931 182.214 222.999 182.159 223.057C182.104 223.115 182.038 223.161 181.965 223.194C181.892 223.226 181.813 223.244 181.733 223.246C181.653 223.247 181.574 223.234 181.499 223.205C181.425 223.176 181.357 223.133 181.299 223.078C181.241 223.023 181.195 222.957 181.162 222.883C181.13 222.81 181.112 222.732 181.11 222.652L181.11 222.639L181.1 219.831C181.1 219.678 181.159 219.531 181.266 219.422C181.374 219.313 181.519 219.251 181.672 219.249C181.825 219.247 181.972 219.305 182.082 219.411C182.192 219.517 182.256 219.662 182.26 219.815ZM182.394 225.43L182.462 228.238C182.464 228.325 182.449 228.412 182.418 228.494C182.386 228.576 182.339 228.651 182.279 228.714C182.218 228.778 182.146 228.829 182.066 228.864C181.986 228.9 181.9 228.919 181.812 228.921C181.725 228.923 181.638 228.908 181.556 228.876C181.474 228.845 181.4 228.797 181.336 228.737C181.273 228.676 181.222 228.604 181.187 228.524C181.152 228.444 181.133 228.357 181.131 228.27L181.131 228.256L181.12 225.448C181.12 225.28 181.185 225.118 181.303 224.999C181.421 224.879 181.581 224.81 181.749 224.808C181.917 224.806 182.079 224.87 182.199 224.986C182.32 225.103 182.39 225.262 182.394 225.43V225.43ZM182.529 231.045L182.583 233.853C182.586 234.041 182.515 234.223 182.384 234.358C182.254 234.493 182.075 234.571 181.887 234.575C181.699 234.578 181.518 234.507 181.382 234.377C181.247 234.247 181.169 234.068 181.165 233.88V233.873L181.141 231.065C181.139 230.881 181.21 230.704 181.338 230.573C181.467 230.441 181.642 230.366 181.825 230.364C182.009 230.361 182.186 230.432 182.318 230.559C182.45 230.687 182.526 230.862 182.529 231.045V231.045ZM182.633 236.661L182.684 239.469C182.687 239.663 182.613 239.85 182.478 239.99C182.343 240.129 182.158 240.209 181.964 240.213C181.77 240.216 181.583 240.143 181.443 240.008C181.304 239.874 181.223 239.689 181.219 239.495V239.489L181.192 236.681C181.19 236.49 181.264 236.307 181.397 236.171C181.53 236.034 181.712 235.956 181.902 235.954C182.093 235.951 182.277 236.024 182.414 236.157C182.551 236.289 182.63 236.471 182.633 236.661ZM182.734 242.277L182.784 245.085C182.788 245.285 182.712 245.479 182.573 245.623C182.434 245.767 182.243 245.85 182.042 245.854C181.842 245.858 181.648 245.782 181.504 245.642C181.36 245.503 181.277 245.312 181.273 245.112V245.106L181.246 242.297C181.244 242.1 181.32 241.91 181.457 241.769C181.595 241.628 181.783 241.547 181.98 241.545C182.177 241.542 182.367 241.617 182.508 241.755C182.65 241.892 182.731 242.08 182.734 242.277ZM182.835 247.893L182.885 250.701C182.889 250.907 182.81 251.107 182.667 251.255C182.523 251.404 182.327 251.489 182.12 251.493C181.914 251.497 181.714 251.418 181.565 251.275C181.417 251.132 181.331 250.935 181.327 250.728V250.722L181.3 247.914C181.298 247.711 181.376 247.515 181.518 247.37C181.66 247.224 181.854 247.141 182.057 247.138C182.26 247.135 182.456 247.213 182.602 247.355C182.747 247.496 182.831 247.69 182.835 247.893ZM182.936 253.508L182.986 256.316C182.988 256.422 182.969 256.526 182.93 256.624C182.892 256.722 182.834 256.812 182.761 256.888C182.688 256.964 182.601 257.024 182.504 257.066C182.407 257.108 182.303 257.131 182.198 257.133C182.093 257.135 181.988 257.116 181.89 257.077C181.792 257.039 181.702 256.981 181.627 256.908C181.551 256.835 181.49 256.748 181.448 256.651C181.406 256.554 181.383 256.45 181.381 256.345V256.338L181.354 253.53C181.353 253.321 181.434 253.12 181.58 252.971C181.726 252.821 181.925 252.736 182.134 252.733C182.343 252.73 182.545 252.81 182.695 252.955C182.845 253.1 182.932 253.299 182.936 253.508ZM183.036 259.124L183.087 261.932C183.089 262.041 183.07 262.149 183.03 262.25C182.991 262.351 182.931 262.443 182.856 262.521C182.781 262.6 182.691 262.662 182.591 262.706C182.492 262.749 182.385 262.773 182.276 262.774C182.167 262.776 182.059 262.757 181.958 262.717C181.857 262.677 181.765 262.618 181.687 262.542C181.609 262.467 181.547 262.377 181.503 262.277C181.46 262.177 181.437 262.07 181.436 261.962V261.955L181.408 259.147C181.406 258.931 181.489 258.724 181.64 258.569C181.79 258.415 181.996 258.327 182.211 258.324C182.427 258.321 182.634 258.404 182.789 258.554C182.944 258.704 183.033 258.909 183.036 259.124ZM183.137 264.74L183.172 267.568C183.174 267.678 183.153 267.787 183.112 267.889C183.072 267.991 183.011 268.084 182.934 268.163C182.858 268.242 182.766 268.304 182.665 268.348C182.564 268.391 182.456 268.414 182.346 268.415C182.236 268.417 182.127 268.396 182.025 268.356C181.923 268.315 181.83 268.254 181.751 268.178C181.673 268.101 181.61 268.009 181.566 267.908C181.523 267.807 181.5 267.699 181.499 267.589L181.498 267.551L181.463 264.763C181.461 264.653 181.481 264.544 181.522 264.442C181.562 264.339 181.622 264.246 181.699 264.167C181.775 264.088 181.867 264.025 181.968 263.981C182.069 263.938 182.177 263.914 182.287 263.913C182.397 263.911 182.506 263.931 182.609 263.972C182.711 264.012 182.804 264.072 182.883 264.149C182.962 264.226 183.025 264.317 183.069 264.418C183.112 264.519 183.136 264.627 183.137 264.737V264.74ZM182.765 270.549C182.508 271.52 182.131 272.456 181.644 273.336C181.539 273.526 181.364 273.667 181.155 273.727C180.947 273.788 180.723 273.763 180.533 273.659C180.343 273.554 180.202 273.378 180.141 273.17C180.081 272.961 180.106 272.737 180.21 272.547C180.626 271.784 180.947 270.972 181.164 270.13C181.191 270.025 181.238 269.926 181.304 269.839C181.369 269.752 181.451 269.679 181.544 269.624C181.638 269.568 181.742 269.532 181.849 269.517C181.957 269.502 182.066 269.508 182.172 269.535C182.277 269.562 182.376 269.61 182.463 269.675C182.549 269.74 182.623 269.822 182.678 269.916C182.733 270.009 182.769 270.113 182.785 270.22C182.8 270.328 182.794 270.438 182.767 270.543L182.765 270.549ZM179.879 275.763C179.194 276.496 178.422 277.142 177.58 277.687C177.403 277.803 177.186 277.843 176.979 277.799C176.772 277.755 176.591 277.631 176.475 277.453C176.359 277.276 176.319 277.059 176.363 276.852C176.406 276.645 176.53 276.463 176.708 276.348C177.436 275.869 178.103 275.303 178.694 274.662C178.839 274.505 179.041 274.413 179.255 274.404C179.469 274.396 179.677 274.472 179.835 274.618C179.992 274.763 180.086 274.964 180.095 275.178C180.104 275.392 180.028 275.601 179.883 275.759L179.879 275.763ZM174.882 278.993C173.932 279.314 172.946 279.517 171.946 279.597C171.74 279.615 171.535 279.549 171.377 279.415C171.219 279.282 171.121 279.091 171.104 278.884C171.086 278.678 171.152 278.473 171.286 278.315C171.419 278.157 171.61 278.059 171.817 278.042C172.687 277.966 173.545 277.784 174.37 277.498C174.468 277.464 174.572 277.45 174.676 277.456C174.779 277.462 174.881 277.488 174.974 277.533C175.067 277.579 175.151 277.642 175.22 277.72C175.289 277.797 175.342 277.888 175.376 277.986C175.41 278.084 175.424 278.187 175.418 278.291C175.412 278.395 175.385 278.496 175.34 278.589C175.295 278.683 175.231 278.766 175.154 278.835C175.076 278.904 174.986 278.957 174.887 278.991L174.882 278.993ZM169.094 279.67L166.286 279.691C166.09 279.692 165.902 279.616 165.761 279.479C165.621 279.342 165.541 279.156 165.538 278.96C165.535 278.764 165.609 278.575 165.745 278.433C165.88 278.292 166.066 278.21 166.262 278.205L169.064 278.128C169.269 278.122 169.467 278.197 169.616 278.337C169.765 278.477 169.852 278.671 169.859 278.875C169.865 279.08 169.79 279.278 169.649 279.427C169.509 279.576 169.316 279.663 169.111 279.67L169.094 279.67ZM163.48 279.702L160.672 279.706C160.491 279.706 160.318 279.635 160.19 279.509C160.062 279.382 159.989 279.21 159.987 279.029C159.985 278.849 160.054 278.675 160.18 278.546C160.305 278.416 160.477 278.342 160.657 278.338L163.461 278.276C163.555 278.273 163.648 278.289 163.735 278.323C163.823 278.356 163.903 278.407 163.971 278.471C164.039 278.536 164.094 278.613 164.132 278.699C164.17 278.785 164.191 278.877 164.193 278.971C164.196 279.065 164.179 279.158 164.146 279.245C164.112 279.333 164.061 279.413 163.997 279.481C163.932 279.549 163.854 279.603 163.769 279.641C163.683 279.679 163.59 279.7 163.497 279.702L163.48 279.702ZM157.866 279.702L155.059 279.69C154.894 279.689 154.736 279.623 154.62 279.507C154.504 279.391 154.438 279.233 154.437 279.068C154.436 278.904 154.5 278.746 154.616 278.628C154.731 278.51 154.888 278.443 155.053 278.441L157.856 278.393C158.029 278.39 158.197 278.456 158.321 278.577C158.446 278.697 158.518 278.862 158.521 279.035C158.525 279.208 158.459 279.375 158.339 279.5C158.219 279.625 158.055 279.698 157.882 279.701L157.866 279.702ZM152.251 279.67L149.442 279.643C149.293 279.642 149.151 279.582 149.046 279.476C148.942 279.37 148.883 279.227 148.883 279.078C148.883 278.929 148.942 278.787 149.047 278.681C149.151 278.575 149.294 278.515 149.443 278.514L152.248 278.481C152.327 278.479 152.405 278.492 152.478 278.521C152.552 278.549 152.619 278.592 152.675 278.647C152.732 278.701 152.778 278.766 152.809 278.839C152.84 278.911 152.857 278.988 152.858 279.067C152.859 279.146 152.845 279.224 152.816 279.297C152.786 279.37 152.743 279.437 152.688 279.493C152.632 279.549 152.567 279.593 152.494 279.624C152.422 279.654 152.344 279.67 152.265 279.67H152.251ZM146.636 279.608L143.829 279.565C143.697 279.563 143.57 279.509 143.478 279.414C143.385 279.319 143.333 279.191 143.334 279.059C143.335 278.926 143.388 278.799 143.482 278.705C143.575 278.612 143.702 278.559 143.835 278.558L146.639 278.54C146.71 278.539 146.779 278.552 146.845 278.578C146.91 278.604 146.969 278.643 147.019 278.692C147.069 278.741 147.109 278.8 147.137 278.865C147.164 278.929 147.179 278.999 147.18 279.069C147.18 279.139 147.167 279.209 147.141 279.274C147.114 279.339 147.075 279.398 147.026 279.448C146.977 279.498 146.918 279.538 146.854 279.566C146.789 279.593 146.72 279.607 146.649 279.608L146.636 279.608ZM141.022 279.515L138.214 279.456C138.098 279.453 137.988 279.405 137.908 279.321C137.827 279.238 137.783 279.126 137.784 279.01C137.786 278.894 137.832 278.783 137.915 278.701C137.997 278.619 138.108 278.573 138.224 278.573L141.03 278.569C141.155 278.569 141.275 278.618 141.364 278.706C141.453 278.795 141.504 278.915 141.504 279.04C141.505 279.165 141.455 279.286 141.367 279.375C141.279 279.464 141.159 279.514 141.033 279.515L141.022 279.515ZM135.406 279.391L132.602 279.317C132.502 279.315 132.406 279.273 132.337 279.2C132.268 279.128 132.23 279.031 132.231 278.931C132.233 278.83 132.274 278.735 132.346 278.665C132.418 278.595 132.514 278.556 132.614 278.556L135.418 278.568C135.527 278.568 135.631 278.612 135.708 278.689C135.785 278.766 135.828 278.871 135.828 278.98C135.828 279.089 135.785 279.194 135.707 279.271C135.63 279.348 135.526 279.391 135.416 279.391L135.406 279.391ZM129.796 279.251L126.99 279.18C126.897 279.177 126.809 279.138 126.745 279.07C126.681 279.003 126.646 278.913 126.649 278.82C126.651 278.727 126.689 278.639 126.756 278.574C126.823 278.51 126.913 278.474 127.006 278.476L129.811 278.522C129.858 278.523 129.906 278.533 129.95 278.552C129.994 278.571 130.033 278.598 130.067 278.632C130.1 278.667 130.126 278.707 130.144 278.752C130.162 278.796 130.171 278.844 130.17 278.891C130.169 278.939 130.159 278.987 130.14 279.03C130.121 279.074 130.094 279.114 130.06 279.148C130.025 279.181 129.985 279.207 129.94 279.225C129.896 279.243 129.848 279.251 129.801 279.251L129.796 279.251ZM124.184 279.101L121.377 279.014C121.291 279.012 121.209 278.975 121.149 278.912C121.09 278.849 121.057 278.764 121.06 278.678C121.062 278.591 121.099 278.509 121.162 278.449C121.225 278.389 121.309 278.357 121.396 278.359L124.201 278.422C124.246 278.422 124.29 278.432 124.331 278.45C124.372 278.467 124.409 278.493 124.44 278.525C124.471 278.558 124.496 278.596 124.512 278.637C124.529 278.679 124.537 278.723 124.536 278.768C124.535 278.813 124.525 278.857 124.507 278.898C124.489 278.939 124.463 278.976 124.431 279.007C124.399 279.038 124.361 279.062 124.319 279.079C124.277 279.095 124.233 279.103 124.188 279.101L124.184 279.101ZM118.571 278.919L115.764 278.816C115.684 278.813 115.608 278.778 115.553 278.72C115.498 278.661 115.468 278.583 115.471 278.502C115.474 278.422 115.509 278.346 115.567 278.291C115.626 278.236 115.704 278.206 115.785 278.209L118.59 278.288C118.632 278.289 118.673 278.298 118.711 278.315C118.749 278.332 118.783 278.356 118.812 278.386C118.84 278.416 118.863 278.451 118.878 278.49C118.893 278.529 118.9 278.57 118.899 278.612C118.898 278.653 118.889 278.694 118.872 278.732C118.855 278.77 118.831 278.805 118.801 278.833C118.77 278.862 118.735 278.884 118.696 278.899C118.657 278.914 118.616 278.921 118.574 278.92L118.571 278.919ZM112.958 278.704L110.156 278.586C110.081 278.583 110.01 278.55 109.96 278.495C109.909 278.44 109.882 278.367 109.885 278.292C109.888 278.218 109.921 278.147 109.976 278.096C110.031 278.046 110.104 278.019 110.179 278.022L112.979 278.121C113.057 278.124 113.13 278.157 113.183 278.213C113.235 278.27 113.264 278.345 113.261 278.422C113.259 278.499 113.226 278.572 113.169 278.625C113.113 278.678 113.038 278.706 112.961 278.704L112.958 278.704ZM107.352 278.477L104.548 278.359C104.509 278.358 104.47 278.348 104.434 278.332C104.398 278.315 104.366 278.292 104.34 278.263C104.313 278.234 104.292 278.2 104.279 278.162C104.265 278.125 104.259 278.086 104.261 278.047C104.262 278.007 104.272 277.969 104.288 277.933C104.305 277.897 104.328 277.865 104.357 277.838C104.386 277.812 104.42 277.791 104.457 277.777C104.494 277.764 104.534 277.758 104.573 277.759L104.576 277.76L107.378 277.895C107.455 277.899 107.527 277.933 107.58 277.989C107.632 278.046 107.659 278.122 107.656 278.199C107.652 278.276 107.619 278.349 107.562 278.401C107.505 278.453 107.429 278.48 107.352 278.477ZM101.743 278.232L98.9386 278.095C98.8544 278.091 98.7753 278.054 98.7188 277.991C98.6622 277.928 98.6327 277.846 98.6368 277.762C98.6409 277.678 98.6783 277.599 98.7406 277.542C98.803 277.485 98.8853 277.455 98.9695 277.459L98.9727 277.46L101.774 277.614C101.856 277.619 101.933 277.655 101.988 277.716C102.042 277.777 102.071 277.857 102.067 277.939C102.063 278.02 102.026 278.097 101.966 278.152C101.905 278.207 101.825 278.236 101.743 278.232L101.743 278.232ZM96.1338 277.949L93.3293 277.792C93.2852 277.789 93.242 277.778 93.2022 277.759C93.1623 277.74 93.1267 277.713 93.0972 277.68C93.0678 277.647 93.0451 277.609 93.0305 277.567C93.0159 277.525 93.0097 277.481 93.0121 277.437C93.0146 277.393 93.0257 277.35 93.0448 277.31C93.064 277.27 93.0908 277.234 93.1238 277.205C93.1567 277.176 93.1951 277.153 93.2368 277.138C93.2785 277.124 93.3227 277.117 93.3668 277.12L93.3702 277.12L96.1712 277.295C96.2576 277.3 96.3382 277.34 96.3955 277.404C96.4529 277.469 96.4823 277.554 96.4774 277.64C96.4724 277.727 96.4335 277.808 96.3692 277.865C96.3048 277.923 96.2202 277.953 96.1338 277.949H96.1338ZM90.5252 277.625L87.721 277.455C87.6252 277.449 87.5356 277.405 87.472 277.333C87.4084 277.261 87.3759 277.167 87.3817 277.071C87.3875 276.975 87.4311 276.885 87.503 276.822C87.5748 276.758 87.669 276.725 87.7648 276.731L87.7706 276.731L90.5698 276.935C90.6151 276.938 90.6593 276.95 90.7001 276.97C90.7408 276.99 90.7772 277.018 90.8071 277.052C90.8371 277.086 90.86 277.125 90.8746 277.168C90.8892 277.211 90.8953 277.257 90.8923 277.302C90.8894 277.347 90.8776 277.392 90.8576 277.432C90.8375 277.473 90.8097 277.509 90.7756 277.539C90.7415 277.569 90.7018 277.592 90.6588 277.607C90.6159 277.622 90.5705 277.628 90.5252 277.625H90.5252ZM84.9209 277.282L82.1152 277.097C82.0612 277.093 82.0085 277.079 81.96 277.055C81.9115 277.031 81.8682 276.998 81.8325 276.957C81.7605 276.875 81.7241 276.768 81.7313 276.659C81.7384 276.55 81.7886 276.448 81.8708 276.376C81.9529 276.304 82.0603 276.268 82.1693 276.275L82.1782 276.276L84.977 276.509C85.0789 276.517 85.1735 276.565 85.2401 276.643C85.3068 276.721 85.34 276.821 85.3326 276.923C85.3252 277.025 85.2777 277.12 85.2006 277.187C85.1235 277.255 85.0229 277.288 84.9209 277.282ZM79.3122 276.901L76.51 276.692C76.4494 276.688 76.3903 276.672 76.336 276.645C76.2816 276.618 76.2332 276.58 76.1935 276.534C76.1538 276.488 76.1235 276.435 76.1044 276.377C76.0854 276.32 76.0779 276.259 76.0824 276.198C76.0869 276.138 76.1033 276.078 76.1307 276.024C76.1581 275.97 76.1959 275.922 76.242 275.882C76.288 275.843 76.3415 275.813 76.3992 275.794C76.4569 275.775 76.5178 275.768 76.5783 275.772L76.5885 275.773L79.3827 276.03C79.4976 276.04 79.604 276.095 79.6784 276.183C79.7529 276.272 79.7895 276.386 79.7802 276.501C79.7709 276.616 79.7164 276.722 79.6287 276.797C79.541 276.872 79.4273 276.909 79.3122 276.901ZM73.7084 276.472L70.9078 276.238C70.7729 276.227 70.6479 276.162 70.5604 276.059C70.4729 275.956 70.4301 275.822 70.4414 275.687C70.4526 275.552 70.517 275.427 70.6204 275.339C70.7238 275.252 70.8577 275.209 70.9927 275.22L71.004 275.221L73.7955 275.504C73.9234 275.516 74.0413 275.578 74.1233 275.677C74.2054 275.776 74.245 275.903 74.2335 276.031C74.2219 276.159 74.1603 276.277 74.0619 276.36C73.9635 276.442 73.8364 276.483 73.7084 276.472ZM68.1078 275.995L65.3087 275.738C65.1589 275.724 65.0207 275.651 64.9245 275.535C64.8283 275.42 64.782 275.271 64.7958 275.121C64.8095 274.971 64.8822 274.833 64.9979 274.736C65.1136 274.64 65.2627 274.594 65.4125 274.608L65.4267 274.609L68.2145 274.922C68.3558 274.938 68.4853 275.008 68.5748 275.118C68.6644 275.229 68.7067 275.37 68.6927 275.511C68.6786 275.653 68.6092 275.783 68.4997 275.873C68.3902 275.964 68.2493 276.007 68.1078 275.995ZM62.5107 275.466L59.714 275.18C59.5493 275.163 59.3981 275.081 59.2936 274.953C59.1891 274.825 59.1398 274.66 59.1567 274.495C59.1735 274.331 59.2551 274.179 59.3834 274.075C59.5118 273.97 59.6764 273.921 59.8411 273.938L59.857 273.94L62.6408 274.282C62.7969 274.3 62.9393 274.38 63.0371 274.503C63.1349 274.626 63.1802 274.782 63.163 274.938C63.1459 275.095 63.0677 275.238 62.9455 275.337C62.8233 275.435 62.6671 275.482 62.5107 275.466V275.466ZM56.9185 274.878L54.1207 274.559C54.0316 274.55 53.9453 274.522 53.8668 274.479C53.7883 274.436 53.7191 274.378 53.6631 274.308C53.6072 274.237 53.5656 274.157 53.5408 274.071C53.516 273.985 53.5085 273.895 53.5186 273.805C53.5288 273.716 53.5564 273.63 53.5999 273.552C53.6435 273.473 53.702 273.404 53.7723 273.349C53.8425 273.293 53.9231 273.252 54.0093 273.227C54.0955 273.203 54.1858 273.196 54.2748 273.206L54.2924 273.208L57.0754 273.582C57.2463 273.604 57.4016 273.693 57.5074 273.829C57.6132 273.965 57.661 274.137 57.6403 274.308C57.6195 274.479 57.532 274.635 57.3968 274.742C57.2616 274.849 57.0897 274.898 56.9185 274.878ZM51.2141 274.061C50.2556 273.722 49.3584 273.23 48.5576 272.604C48.406 272.486 48.3075 272.312 48.2838 272.122C48.2601 271.931 48.3132 271.738 48.4313 271.587C48.5494 271.435 48.7229 271.337 48.9136 271.313C49.1043 271.289 49.2967 271.342 49.4483 271.46L49.4574 271.468C50.1279 272.006 50.8813 272.433 51.6883 272.731C51.8638 272.795 52.0069 272.925 52.0864 273.094C52.166 273.263 52.1754 273.456 52.1128 273.632C52.0501 273.808 51.9204 273.951 51.752 274.032C51.5835 274.112 51.3902 274.123 51.2141 274.061V274.061ZM46.504 270.374C45.9529 269.529 45.5248 268.61 45.2326 267.644C45.2031 267.548 45.1928 267.448 45.2021 267.348C45.2115 267.248 45.2404 267.152 45.2872 267.063C45.334 266.975 45.3977 266.896 45.4748 266.832C45.5519 266.768 45.6408 266.72 45.7364 266.691C45.8321 266.661 45.9326 266.651 46.0322 266.66C46.1319 266.67 46.2287 266.699 46.3172 266.746C46.4057 266.792 46.4841 266.856 46.5479 266.933C46.6117 267.01 46.6598 267.099 46.6892 267.195L46.6922 267.205C46.9312 268.037 47.2874 268.831 47.75 269.562C47.8563 269.728 47.8928 269.928 47.8516 270.12C47.8105 270.312 47.695 270.48 47.5303 270.588C47.3657 270.695 47.1653 270.732 46.973 270.692C46.7807 270.652 46.6121 270.538 46.504 270.374ZM44.6875 264.727C44.6119 263.752 44.6118 262.772 44.6874 261.798C44.7044 261.587 44.8039 261.392 44.9642 261.255C45.1244 261.117 45.3324 261.049 45.5429 261.065C45.7534 261.08 45.9492 261.178 46.0877 261.337C46.2262 261.496 46.2961 261.704 46.2822 261.915L46.2813 261.926C46.1999 262.818 46.1876 263.715 46.2447 264.608C46.259 264.814 46.1914 265.017 46.0565 265.173C45.9216 265.33 45.7304 265.426 45.5247 265.442C45.3191 265.457 45.1155 265.391 44.9587 265.257C44.8018 265.123 44.7043 264.932 44.6875 264.727L44.6875 264.727ZM44.8593 259.03L44.9181 256.248L44.9185 256.228C44.9236 256.006 45.0165 255.796 45.1766 255.643C45.3368 255.489 45.5513 255.406 45.7729 255.411C45.9945 255.415 46.2053 255.508 46.3588 255.668C46.5124 255.828 46.5963 256.042 46.5921 256.264L46.5918 256.275L46.4943 259.099C46.4863 259.315 46.3935 259.518 46.2362 259.665C46.079 259.813 45.8699 259.892 45.6544 259.886C45.4389 259.88 45.2345 259.79 45.0855 259.634C44.9366 259.478 44.8551 259.27 44.8589 259.054L44.8593 259.03ZM44.9244 253.458L44.8915 250.664L44.8914 250.653C44.8901 250.54 44.911 250.428 44.9531 250.323C44.9951 250.218 45.0574 250.123 45.1363 250.042C45.2153 249.961 45.3094 249.896 45.4133 249.852C45.5172 249.807 45.6289 249.784 45.7419 249.783C45.8549 249.781 45.9671 249.802 46.072 249.844C46.1769 249.886 46.2725 249.949 46.3534 250.027C46.4342 250.106 46.4988 250.201 46.5432 250.305C46.5877 250.408 46.6113 250.52 46.6126 250.633L46.6127 250.64L46.6243 253.456C46.6254 253.681 46.5372 253.897 46.3792 254.057C46.2212 254.217 46.0062 254.308 45.7813 254.31C45.5565 254.312 45.34 254.225 45.1794 254.067C45.0188 253.91 44.9272 253.695 44.9245 253.47L44.9244 253.458ZM44.8248 247.87L44.7287 245.076L44.7284 245.067C44.7205 244.834 44.8057 244.606 44.9654 244.435C45.125 244.264 45.346 244.164 45.5797 244.156C45.8134 244.148 46.0407 244.233 46.2117 244.392C46.3827 244.552 46.4834 244.773 46.4916 245.007L46.4917 245.013L46.567 247.825C46.5729 248.055 46.4874 248.279 46.3292 248.446C46.171 248.613 45.953 248.711 45.7228 248.718C45.4926 248.726 45.269 248.641 45.1008 248.484C44.9326 248.327 44.8335 248.109 44.8252 247.879L44.8248 247.87ZM44.6057 242.281L44.4578 239.489L44.4574 239.481C44.451 239.362 44.4679 239.244 44.5074 239.132C44.5469 239.02 44.608 238.917 44.6874 238.828C44.7667 238.74 44.8627 238.668 44.9698 238.617C45.077 238.565 45.1932 238.536 45.3117 238.53C45.4303 238.523 45.549 238.54 45.6609 238.58C45.7729 238.62 45.8759 238.681 45.9641 238.76C46.0524 238.84 46.1241 238.936 46.1752 239.043C46.2262 239.15 46.2557 239.267 46.2618 239.385L46.2622 239.392L46.3894 242.201C46.4005 242.437 46.3175 242.668 46.1585 242.843C45.9996 243.018 45.7778 243.123 45.5417 243.135C45.3056 243.146 45.0745 243.064 44.8992 242.905C44.7238 242.747 44.6184 242.525 44.6062 242.289L44.6057 242.281ZM44.286 236.696L44.0913 233.903L44.0908 233.896C44.0743 233.652 44.1555 233.411 44.3164 233.226C44.4774 233.041 44.705 232.928 44.9493 232.911C45.1936 232.894 45.4347 232.975 45.6197 233.135C45.8047 233.296 45.9185 233.523 45.9361 233.767L45.9366 233.774L46.111 236.583C46.1262 236.825 46.045 237.062 45.8853 237.244C45.7256 237.426 45.5003 237.537 45.2589 237.553C45.0175 237.569 44.7796 237.488 44.5973 237.329C44.4151 237.17 44.3033 236.945 44.2866 236.704L44.286 236.696ZM43.8745 231.116L43.6356 228.328L43.635 228.321C43.6244 228.197 43.6383 228.072 43.6759 227.954C43.7135 227.835 43.774 227.725 43.8541 227.63C44.0157 227.438 44.247 227.318 44.4971 227.297C44.7471 227.275 44.9954 227.354 45.1874 227.516C45.3794 227.678 45.4992 227.909 45.5207 228.159L45.5213 228.166L45.7399 230.97C45.7593 231.217 45.6801 231.462 45.5196 231.65C45.3591 231.839 45.1305 231.956 44.8837 231.976C44.637 231.996 44.3923 231.918 44.2032 231.758C44.0141 231.598 43.8961 231.37 43.875 231.123L43.8745 231.116ZM43.3751 225.541L43.093 222.756L43.0922 222.748C43.0794 222.622 43.0916 222.494 43.1282 222.372C43.1647 222.251 43.2249 222.137 43.3052 222.039C43.3856 221.94 43.4845 221.859 43.5965 221.799C43.7084 221.738 43.831 221.701 43.9575 221.688C44.0839 221.675 44.2116 221.687 44.3333 221.724C44.455 221.76 44.5684 221.821 44.6668 221.901C44.7653 221.981 44.847 222.08 44.9072 222.192C44.9674 222.304 45.005 222.427 45.0178 222.553L45.0185 222.561L45.2807 225.363C45.3044 225.615 45.2273 225.866 45.0661 226.062C44.905 226.257 44.673 226.38 44.421 226.405C44.169 226.43 43.9175 226.353 43.7216 226.193C43.5257 226.032 43.4014 225.801 43.3759 225.549L43.3751 225.541ZM42.7895 219.972L42.4651 217.195L42.4641 217.187C42.4338 216.927 42.5081 216.665 42.6708 216.459C42.8335 216.254 43.0713 216.121 43.3318 216.09C43.5923 216.06 43.8542 216.134 44.06 216.297C44.2657 216.46 44.3984 216.697 44.429 216.958L44.4298 216.965L44.7347 219.76C44.7629 220.017 44.6879 220.275 44.5263 220.478C44.3646 220.68 44.1294 220.81 43.8722 220.839C43.615 220.868 43.3567 220.794 43.154 220.633C42.9512 220.472 42.8205 220.237 42.7904 219.98L42.7895 219.972ZM42.1262 214.418L41.7731 211.642L41.7722 211.635C41.7387 211.375 41.8099 211.112 41.9701 210.905C42.1302 210.697 42.3662 210.562 42.6262 210.528C42.8862 210.495 43.1488 210.566 43.3563 210.726C43.5638 210.886 43.6992 211.122 43.7326 211.382L44.0958 214.173C44.1135 214.302 44.1054 214.434 44.0719 214.561C44.0384 214.687 43.9803 214.806 43.9008 214.91C43.8214 215.014 43.7221 215.101 43.6088 215.166C43.4955 215.232 43.3704 215.274 43.2407 215.291C43.1109 215.308 42.9791 215.299 42.8529 215.265C42.7266 215.231 42.6083 215.172 42.5049 215.092C42.4014 215.011 42.3149 214.912 42.2501 214.798C42.1854 214.684 42.1438 214.559 42.1277 214.429L42.1272 214.426L42.1262 214.418ZM41.3982 208.869L41.0011 206.098L41 206.09C40.9627 205.833 41.0292 205.571 41.1847 205.363C41.3403 205.154 41.5722 205.017 41.8295 204.979C42.0867 204.942 42.3482 205.009 42.5565 205.164C42.7647 205.32 42.9027 205.552 42.9399 205.809L43.3473 208.594C43.366 208.722 43.3594 208.853 43.3277 208.978C43.2961 209.103 43.24 209.221 43.1628 209.325C43.0856 209.428 42.9888 209.516 42.8778 209.582C42.7668 209.648 42.6439 209.692 42.516 209.711C42.3881 209.73 42.2578 209.723 42.1325 209.691C42.0072 209.66 41.8893 209.604 41.7857 209.526C41.682 209.449 41.5946 209.352 41.5283 209.241C41.4621 209.13 41.4184 209.007 41.3997 208.879L41.3993 208.877L41.3982 208.869ZM40.5817 203.33L40.1394 200.565L40.1381 200.557C40.0983 200.303 40.1606 200.044 40.3115 199.836C40.4624 199.628 40.6896 199.488 40.9433 199.447C41.197 199.406 41.4566 199.467 41.6653 199.617C41.874 199.767 42.0148 199.994 42.0569 200.247L42.5098 203.026C42.5304 203.153 42.5259 203.282 42.4966 203.407C42.4672 203.532 42.4135 203.65 42.3387 203.754C42.2638 203.858 42.1692 203.946 42.0602 204.013C41.9512 204.081 41.83 204.126 41.7035 204.147C41.577 204.167 41.4477 204.163 41.323 204.133C41.1982 204.104 41.0805 204.05 40.9764 203.976C40.8724 203.901 40.7842 203.806 40.7167 203.697C40.6492 203.588 40.6039 203.467 40.5833 203.34L40.5828 203.338L40.5817 203.33ZM39.6743 197.804L39.1863 195.051L39.1849 195.043C39.1405 194.792 39.1977 194.533 39.3438 194.324C39.4899 194.114 39.713 193.972 39.9642 193.927C40.2154 193.882 40.4742 193.938 40.6838 194.084C40.8933 194.23 41.0366 194.453 41.082 194.704L41.5809 197.471C41.6261 197.724 41.5693 197.984 41.4229 198.195C41.2764 198.405 41.0524 198.549 40.8 198.595C40.5476 198.64 40.2875 198.584 40.0767 198.437C39.866 198.291 39.7219 198.067 39.6761 197.815L39.6757 197.812L39.6743 197.804ZM38.6743 192.302L38.138 189.556L38.1363 189.547C38.0877 189.299 38.1397 189.041 38.2808 188.831C38.422 188.621 38.6409 188.475 38.8893 188.426C39.1377 188.377 39.3953 188.429 39.6056 188.57C39.816 188.711 39.9617 188.93 40.011 189.178L40.5589 191.939C40.5834 192.063 40.5833 192.19 40.5587 192.314C40.5341 192.437 40.4853 192.555 40.4153 192.659C40.3452 192.764 40.2552 192.854 40.1504 192.924C40.0456 192.994 39.9281 193.043 39.8045 193.067C39.6809 193.092 39.5537 193.092 39.4301 193.067C39.3065 193.042 39.189 192.994 39.0843 192.924C38.9795 192.854 38.8896 192.764 38.8196 192.659C38.7497 192.554 38.7011 192.436 38.6765 192.313L38.6759 192.31L38.6743 192.302ZM37.5765 186.814L36.9896 184.078L36.9876 184.069C36.9355 183.824 36.9827 183.568 37.1189 183.357C37.2551 183.147 37.4691 182.999 37.7141 182.946C37.9592 182.893 38.2152 182.939 38.4261 183.075C38.637 183.21 38.7856 183.424 38.8393 183.669L39.438 186.421C39.4645 186.543 39.4668 186.669 39.4446 186.792C39.4224 186.915 39.3762 187.033 39.3087 187.138C39.2412 187.243 39.1536 187.334 39.051 187.405C38.9484 187.476 38.8327 187.526 38.7106 187.553C38.5886 187.58 38.4625 187.582 38.3395 187.56C38.2166 187.537 38.0992 187.491 37.9941 187.424C37.889 187.356 37.7983 187.269 37.727 187.166C37.6558 187.063 37.6054 186.948 37.5789 186.826L37.5783 186.823L37.5765 186.814ZM36.3766 181.347L35.737 178.622L35.7349 178.613C35.6783 178.371 35.72 178.116 35.851 177.905C35.9819 177.693 36.1913 177.542 36.4332 177.485C36.6752 177.428 36.9299 177.469 37.1416 177.6C37.3533 177.73 37.5046 177.939 37.5624 178.181L38.2143 180.922C38.2718 181.165 38.2304 181.421 38.0992 181.634C37.9681 181.847 37.7579 181.999 37.5148 182.056C37.2717 182.114 37.0156 182.073 36.8028 181.942C36.5899 181.811 36.4376 181.601 36.3794 181.358L36.3788 181.356L36.3766 181.347ZM35.0742 175.903L34.394 173.189L34.3917 173.18C34.3331 172.946 34.3692 172.699 34.4922 172.492C34.6151 172.285 34.815 172.135 35.0481 172.075C35.2812 172.015 35.5286 172.049 35.7363 172.171C35.944 172.293 36.0952 172.492 36.1568 172.724L36.8789 175.447C36.9418 175.686 36.9076 175.94 36.7836 176.153C36.6596 176.366 36.456 176.521 36.2176 176.585C35.9792 176.648 35.7254 176.614 35.5121 176.49C35.2987 176.366 35.1432 176.163 35.0797 175.925L35.0779 175.917L35.0742 175.903ZM33.6849 170.482L32.946 167.783L32.9434 167.773C32.8824 167.551 32.9119 167.313 33.0254 167.113C33.1389 166.912 33.3272 166.764 33.5491 166.702C33.7711 166.639 34.0088 166.667 34.2102 166.779C34.4117 166.892 34.5606 167.079 34.6244 167.301L35.4055 170.008C35.438 170.121 35.448 170.239 35.4349 170.355C35.4218 170.472 35.3859 170.585 35.3293 170.687C35.2726 170.79 35.1964 170.88 35.1048 170.953C35.0132 171.026 34.9081 171.081 34.7955 171.113C34.6829 171.146 34.565 171.156 34.4486 171.143C34.3321 171.13 34.2194 171.094 34.1168 171.037C34.0142 170.98 33.9238 170.904 33.8507 170.812C33.7776 170.721 33.7232 170.616 33.6908 170.503L33.6888 170.496L33.6849 170.482ZM32.1765 165.092L31.3759 162.411L31.3729 162.401C31.3098 162.19 31.3329 161.962 31.4369 161.768C31.541 161.574 31.7177 161.429 31.9285 161.364C32.1392 161.299 32.367 161.321 32.562 161.424C32.757 161.526 32.9034 161.702 32.9694 161.912L33.8127 164.602C33.8805 164.818 33.8597 165.052 33.7548 165.253C33.6499 165.454 33.4695 165.605 33.2534 165.672C33.0373 165.74 32.8031 165.719 32.6023 165.614C32.4016 165.51 32.2507 165.329 32.1829 165.113L32.1808 165.106L32.1765 165.092ZM30.5427 159.74L29.6762 157.079L29.6731 157.069C29.6078 156.869 29.6243 156.652 29.7189 156.464C29.8136 156.276 29.9788 156.133 30.1784 156.066C30.378 156 30.5959 156.015 30.7843 156.109C30.9728 156.202 31.1166 156.366 31.1844 156.566L32.0937 159.234C32.1282 159.335 32.1425 159.442 32.1356 159.549C32.1287 159.656 32.1009 159.761 32.0536 159.857C32.0064 159.953 31.9406 160.039 31.8602 160.109C31.7797 160.18 31.6861 160.234 31.5847 160.269C31.4833 160.304 31.3761 160.318 31.2692 160.311C31.1623 160.304 31.0578 160.276 30.9617 160.229C30.8655 160.182 30.7797 160.116 30.7089 160.035C30.6382 159.955 30.584 159.861 30.5494 159.76L30.5473 159.754L30.5427 159.74ZM28.7754 154.43L27.839 151.794L27.8354 151.784C27.8015 151.69 27.7863 151.591 27.7907 151.491C27.7951 151.392 27.8191 151.294 27.8613 151.204C27.9464 151.022 28.1005 150.881 28.2895 150.812C28.4786 150.744 28.6871 150.753 28.8693 150.838C29.0515 150.923 29.1924 151.077 29.261 151.266L30.2405 153.91C30.3116 154.103 30.3031 154.316 30.2169 154.503C30.1308 154.69 29.974 154.836 29.781 154.907C29.588 154.979 29.3745 154.971 29.1873 154.885C29.0001 154.799 28.8546 154.643 28.7825 154.45L28.7804 154.444L28.7754 154.43ZM26.8659 149.171L25.8549 146.562L25.8511 146.552C25.7824 146.375 25.7867 146.178 25.8629 146.004C25.9391 145.829 26.081 145.692 26.2577 145.623C26.4344 145.553 26.6316 145.556 26.8063 145.63C26.9809 145.705 27.1189 145.846 27.1901 146.023L28.2445 148.637C28.2808 148.727 28.299 148.823 28.2981 148.92C28.2972 149.018 28.2772 149.113 28.2392 149.203C28.2012 149.292 28.146 149.373 28.0768 149.441C28.0075 149.509 27.9255 149.563 27.8355 149.599C27.7455 149.636 27.6492 149.654 27.5521 149.653C27.455 149.652 27.3591 149.632 27.2698 149.594C27.1804 149.556 27.0995 149.501 27.0315 149.431C26.9635 149.362 26.9098 149.28 26.8734 149.19L26.8712 149.185L26.8659 149.171ZM24.8053 143.969L23.7257 141.388L23.7216 141.378C23.6535 141.216 23.6524 141.033 23.7183 140.87C23.7842 140.706 23.9119 140.575 24.0737 140.506C24.2355 140.436 24.4182 140.433 24.5823 140.497C24.7464 140.561 24.8786 140.687 24.9501 140.848L26.0957 143.424C26.1332 143.508 26.1538 143.599 26.1563 143.691C26.1587 143.783 26.143 143.875 26.1101 143.961C26.0771 144.047 26.0275 144.125 25.9642 144.192C25.9008 144.259 25.8249 144.313 25.7408 144.35C25.6566 144.387 25.566 144.408 25.4739 144.41C25.3819 144.413 25.2903 144.397 25.2044 144.364C25.1185 144.331 25.04 144.281 24.9733 144.217C24.9066 144.154 24.8531 144.078 24.8158 143.994L24.811 143.983L24.8053 143.969ZM22.6042 138.825L21.4391 136.282L21.4347 136.272C21.3682 136.127 21.3617 135.962 21.4166 135.812C21.4714 135.662 21.5831 135.539 21.7275 135.471C21.872 135.403 22.0374 135.395 22.188 135.448C22.3386 135.501 22.4622 135.611 22.5319 135.755L23.7627 138.291C23.7992 138.367 23.8206 138.448 23.8256 138.532C23.8305 138.616 23.819 138.699 23.7915 138.779C23.7641 138.858 23.7213 138.931 23.6657 138.993C23.6101 139.056 23.5426 139.107 23.4673 139.144C23.3919 139.18 23.3101 139.202 23.2264 139.207C23.1428 139.212 23.059 139.2 22.9798 139.173C22.9007 139.145 22.8277 139.102 22.7651 139.047C22.7024 138.991 22.6514 138.924 22.6148 138.848L22.6101 138.838L22.6042 138.825ZM20.229 133.76L18.9725 131.26L18.9677 131.25C18.9033 131.122 18.892 130.974 18.9362 130.838C18.9804 130.701 19.0766 130.588 19.204 130.522C19.3313 130.456 19.4794 130.444 19.6162 130.486C19.753 130.529 19.8674 130.624 19.9345 130.751L21.2563 133.241C21.2926 133.308 21.3153 133.381 21.3231 133.457C21.3309 133.532 21.3236 133.609 21.3017 133.681C21.2798 133.754 21.2437 133.822 21.1954 133.881C21.1472 133.94 21.0877 133.988 21.0206 134.024C20.9534 134.06 20.8798 134.082 20.8041 134.089C20.7284 134.096 20.652 134.088 20.5794 134.065C20.5068 134.042 20.4395 134.006 20.3812 133.957C20.3229 133.908 20.2748 133.848 20.2398 133.78L20.2352 133.772L20.229 133.76ZM17.6662 128.782C17.2158 127.973 16.777 127.139 16.3454 126.292C16.2878 126.179 16.2771 126.048 16.3155 125.927C16.354 125.806 16.4385 125.705 16.5508 125.646C16.6631 125.587 16.794 125.575 16.9152 125.612C17.0365 125.649 17.1383 125.732 17.1985 125.844L17.2017 125.85C17.6372 126.66 18.0859 127.47 18.5633 128.284C18.6322 128.402 18.6515 128.542 18.6172 128.673C18.5829 128.805 18.4977 128.918 18.3803 128.987C18.2629 129.055 18.123 129.075 17.9914 129.04C17.8597 129.006 17.7471 128.921 17.6782 128.803L17.6739 128.796L17.6662 128.782ZM15.1077 123.761L13.9099 121.21C13.8632 121.111 13.8576 120.997 13.8942 120.893C13.9308 120.79 14.0068 120.705 14.1056 120.657C14.2044 120.609 14.318 120.602 14.422 120.637C14.526 120.673 14.6118 120.748 14.6609 120.846L14.6637 120.851L15.9159 123.363L15.9187 123.369C15.9452 123.422 15.9611 123.479 15.9653 123.538C15.9695 123.597 15.962 123.657 15.9433 123.713C15.9246 123.769 15.8949 123.821 15.8561 123.866C15.8173 123.911 15.77 123.947 15.717 123.974C15.664 124 15.6062 124.016 15.5472 124.02C15.4881 124.024 15.4287 124.016 15.3726 123.998C15.3164 123.979 15.2645 123.949 15.2199 123.91C15.1752 123.871 15.1387 123.824 15.1124 123.771L15.1077 123.761ZM12.7609 118.641L11.6506 116.051C11.6168 115.973 11.6153 115.884 11.6465 115.804C11.6776 115.724 11.7389 115.66 11.817 115.624C11.8952 115.589 11.9841 115.586 12.0645 115.616C12.1448 115.646 12.2103 115.706 12.2467 115.784L12.2493 115.789L13.4374 118.331L13.44 118.337C13.4608 118.381 13.4727 118.429 13.475 118.478C13.4773 118.527 13.4699 118.576 13.4532 118.622C13.4366 118.668 13.411 118.71 13.378 118.746C13.345 118.782 13.3052 118.812 13.2608 118.832C13.2165 118.853 13.1685 118.865 13.1196 118.867C13.0707 118.869 13.0219 118.862 12.9759 118.845C12.9299 118.828 12.8877 118.802 12.8516 118.769C12.8156 118.736 12.7864 118.696 12.7658 118.652L12.7609 118.641ZM10.591 113.443L9.59803 110.806C9.57619 110.748 9.57799 110.684 9.60305 110.627C9.62811 110.57 9.67441 110.526 9.73199 110.503C9.78957 110.48 9.8538 110.481 9.91085 110.505C9.9679 110.529 10.0132 110.575 10.037 110.632L10.04 110.639L11.1116 113.229L11.1146 113.236C11.1288 113.27 11.136 113.307 11.136 113.344C11.136 113.381 11.1287 113.417 11.1146 113.452C11.1004 113.486 11.0796 113.517 11.0535 113.543C11.0273 113.569 10.9963 113.59 10.9621 113.604C10.928 113.618 10.8914 113.625 10.8544 113.625C10.8174 113.625 10.7808 113.618 10.7466 113.604C10.7125 113.59 10.6814 113.569 10.6553 113.543C10.6292 113.517 10.6084 113.486 10.5943 113.451L10.591 113.443ZM8.70846 108.13L8.01616 105.387C8.00681 105.35 8.01235 105.31 8.03159 105.278C8.05083 105.245 8.08223 105.221 8.119 105.211C8.15578 105.201 8.19499 105.206 8.22818 105.224C8.26137 105.243 8.28587 105.274 8.29641 105.311L8.30161 105.329L9.07206 108.014L9.07691 108.031C9.09064 108.079 9.08456 108.131 9.06001 108.176C9.03545 108.22 8.99442 108.252 8.94589 108.266C8.89736 108.28 8.84527 108.274 8.80106 108.25C8.75684 108.226 8.7241 108.185 8.70998 108.136L8.70846 108.13ZM8.09796 102.54C8.20682 102.357 8.37983 102.22 8.58355 102.157C8.59528 102.153 8.60761 102.152 8.61985 102.153C8.63209 102.154 8.644 102.157 8.65489 102.163C8.66577 102.169 8.67544 102.177 8.68331 102.186C8.69118 102.195 8.69711 102.206 8.70077 102.218C8.70758 102.242 8.70507 102.267 8.69376 102.289C8.68244 102.311 8.66319 102.327 8.63998 102.335C8.4822 102.388 8.35004 102.499 8.26951 102.644C8.26291 102.656 8.25412 102.666 8.24366 102.674C8.23319 102.682 8.22125 102.688 8.20852 102.691C8.19578 102.694 8.18252 102.695 8.16946 102.694C8.15639 102.692 8.14379 102.688 8.13239 102.681C8.12098 102.674 8.11099 102.666 8.10299 102.655C8.09499 102.645 8.08914 102.633 8.08575 102.62C8.08237 102.607 8.08152 102.594 8.08327 102.581C8.08502 102.568 8.08934 102.555 8.09596 102.544L8.09796 102.54ZM95.4167 166.197C93.3693 166.72 91.2815 167.069 89.1755 167.241C87.0966 167.428 85.0186 167.505 82.9415 167.488C80.8645 167.472 78.7883 167.357 76.713 167.132C74.61 166.923 72.5287 166.535 70.4918 165.972C72.5385 165.446 74.6265 165.095 76.7329 164.924C78.8119 164.737 80.8897 164.66 82.9669 164.681C85.0439 164.701 87.1201 164.816 89.1953 165.04C91.2979 165.25 93.3791 165.637 95.4167 166.197ZM41.7207 279.419C42.078 282.344 42.2356 285.27 42.3526 288.196C42.456 291.122 42.5151 294.047 42.4062 296.973C42.2722 299.899 41.9994 302.824 41.9306 305.75C41.9255 306.482 41.9019 307.213 41.9121 307.945C41.8569 308.641 41.9536 309.341 42.1953 309.997C42.4452 310.615 42.8519 311.157 43.3752 311.571C43.8986 311.984 44.5206 312.254 45.1799 312.353C45.813 312.436 46.4568 312.363 47.0557 312.142C47.6291 311.913 48.1398 311.551 48.5452 311.086C48.9382 310.632 49.2128 310.087 49.3444 309.501C49.4076 309.213 49.4379 308.919 49.4347 308.624L49.4117 307.53C49.347 304.604 49.2683 301.678 49.2939 298.753C49.373 292.901 49.6079 287.05 50.1986 281.198C50.2009 281.175 50.2118 281.154 50.229 281.138C50.2463 281.122 50.2688 281.114 50.2921 281.114C50.3154 281.114 50.3379 281.122 50.3552 281.138C50.3725 281.154 50.3833 281.175 50.3857 281.198C50.9762 287.05 51.2113 292.901 51.2904 298.753C51.3157 301.678 51.2372 304.604 51.1725 307.53L51.148 308.63C51.1373 309.067 51.07 309.501 50.9479 309.921C50.5973 311.161 49.776 312.214 48.6593 312.856C47.5427 313.498 46.2192 313.678 44.9718 313.357C44.1938 313.153 43.4783 312.76 42.8897 312.211C42.301 311.663 41.8574 310.978 41.5988 310.216C41.4753 309.844 41.3934 309.46 41.3548 309.07C41.3299 308.67 41.3383 308.309 41.3422 307.945C41.3524 307.213 41.3287 306.482 41.3237 305.75C41.2547 302.824 40.9821 299.899 40.8481 296.973C40.7391 294.047 40.7983 291.121 40.9017 288.196C41.0187 285.27 41.1762 282.344 41.5336 279.419C41.5364 279.396 41.5474 279.375 41.5646 279.359C41.5819 279.344 41.6041 279.336 41.6271 279.336C41.6502 279.336 41.6724 279.344 41.6896 279.359C41.7069 279.375 41.7179 279.396 41.7207 279.419ZM175.289 285.971C175.646 288.469 175.804 290.967 175.921 293.465C176.024 295.963 176.083 298.461 175.975 300.959C175.859 303.457 175.557 305.955 175.499 308.452C175.464 309.038 175.564 309.624 175.792 310.164C176.021 310.704 176.371 311.184 176.816 311.567C177.333 312.011 177.962 312.307 178.634 312.421C179.307 312.535 179.997 312.463 180.632 312.214C181.267 311.964 181.822 311.546 182.237 311.005C182.652 310.463 182.911 309.819 182.987 309.141C183.033 308.69 182.989 308.011 182.98 307.395C182.915 304.897 182.837 302.399 182.862 299.901C182.906 294.893 183.208 289.89 183.767 284.913C183.77 284.89 183.781 284.869 183.798 284.854C183.815 284.839 183.837 284.83 183.86 284.83C183.883 284.83 183.906 284.839 183.923 284.854C183.94 284.869 183.951 284.89 183.954 284.913C184.512 289.89 184.814 294.893 184.859 299.901C184.884 302.399 184.806 304.897 184.741 307.395C184.746 308.061 184.707 308.727 184.626 309.389C184.437 310.47 183.889 311.456 183.071 312.187C182.253 312.918 181.212 313.352 180.117 313.419C179.433 313.465 178.746 313.365 178.103 313.126C177.46 312.888 176.875 312.516 176.386 312.035C175.907 311.57 175.528 311.013 175.271 310.397C175.014 309.781 174.885 309.12 174.892 308.452C174.834 305.955 174.532 303.457 174.416 300.959C174.308 298.461 174.367 295.963 174.47 293.465C174.587 290.967 174.745 288.469 175.102 285.971C175.105 285.949 175.116 285.928 175.134 285.913C175.151 285.898 175.173 285.89 175.196 285.89C175.218 285.89 175.24 285.898 175.257 285.913C175.275 285.928 175.286 285.949 175.289 285.971ZM46.4964 105.585C47.1309 104.542 47.9311 103.61 48.8654 102.825C49.7883 102.026 50.7862 101.318 51.8452 100.71C53.9903 99.5294 56.3086 98.6949 58.7143 98.2379C61.1065 97.7473 63.5426 97.5031 65.9845 97.5091C67.1989 97.562 68.4161 97.6083 69.6297 97.685L73.249 98.1048C73.3971 98.1217 73.5355 98.1866 73.6432 98.2896L73.6692 98.3144C75.6069 100.163 77.5653 101.991 79.486 103.857L78.7926 103.628C82.0705 103.375 85.3659 103.782 88.4837 104.825C91.5669 105.829 94.4551 107.354 97.0229 109.334C97.6651 109.817 98.2416 110.385 98.8519 110.905C99.1485 111.175 99.4628 111.427 99.7439 111.712L100.555 112.601C101.081 113.204 101.661 113.76 102.157 114.386L103.587 116.308C103.819 116.633 104.077 116.939 104.291 117.275L104.909 118.298L106.145 120.344C106.878 121.755 107.551 123.198 108.257 124.626L108.26 124.632L108.266 124.649C108.862 126.345 109.622 127.979 110.536 129.527C110.99 130.286 111.525 130.992 112.133 131.634C112.673 132.264 113.389 132.718 114.189 132.938C114.246 132.949 114.3 132.971 114.349 133.003C114.397 133.035 114.439 133.076 114.472 133.124C114.505 133.172 114.528 133.226 114.539 133.283C114.551 133.34 114.552 133.399 114.541 133.456L114.525 133.515L114.52 133.529C113.445 136.609 112.172 139.617 110.709 142.534C109.252 145.464 107.573 148.279 105.689 150.954C103.783 153.649 101.596 156.133 99.1633 158.364C96.6602 160.599 93.8013 162.4 90.7046 163.693C90.5403 163.759 90.3608 163.779 90.1861 163.748C90.0115 163.718 89.8487 163.64 89.7162 163.523L89.7014 163.509C86.3706 160.547 83.1903 157.48 80.1311 154.266C77.0543 151.076 74.1434 147.723 71.3827 144.247C70.0143 142.499 68.6803 140.721 67.4241 138.886C66.1918 137.034 65.025 135.135 63.9776 133.167C62.9059 131.205 62.0457 129.134 61.4117 126.989C60.7249 124.849 60.5529 122.578 60.9096 120.359C60.912 120.347 60.9168 120.335 60.9237 120.325C60.9305 120.315 60.9393 120.306 60.9496 120.299C60.9598 120.292 60.9713 120.288 60.9833 120.285C60.9954 120.283 61.0078 120.283 61.0199 120.285C61.0429 120.291 61.0632 120.304 61.0769 120.323C61.0906 120.343 61.0968 120.366 61.0943 120.39C60.9311 122.566 61.2601 124.751 62.0568 126.783C62.8193 128.824 63.7703 130.789 64.8975 132.653C67.2 136.372 69.7814 139.911 72.6194 143.239C75.4399 146.592 78.4515 149.784 81.5169 152.921C84.6014 156.033 87.7628 159.103 91.0119 162.012L90.009 161.829C92.9062 160.663 95.5918 159.028 97.9578 156.99C100.325 154.879 102.471 152.532 104.361 149.985C106.272 147.419 108 144.723 109.533 141.915C111.106 139.118 112.486 136.217 113.665 133.233L113.996 133.823C113.034 133.535 112.181 132.962 111.551 132.179C110.935 131.472 110.395 130.703 109.938 129.883C109.022 128.281 108.266 126.593 107.68 124.843L107.689 124.865C107.003 123.454 106.39 122.002 105.645 120.621L104.407 118.618L103.789 117.617C103.577 117.287 103.314 116.993 103.076 116.682L101.619 114.84C101.117 114.242 100.534 113.714 99.9894 113.156L99.1603 112.331C98.8738 112.067 98.5556 111.839 98.2553 111.591C97.6384 111.116 97.0576 110.595 96.4153 110.16C93.8726 108.389 91.0467 107.065 88.059 106.244C85.123 105.398 82.0611 105.076 79.0134 105.292L78.9738 105.295C78.8546 105.305 78.7347 105.289 78.6219 105.249C78.5092 105.209 78.4062 105.146 78.3199 105.063C76.39 103.206 74.4981 101.31 72.5855 99.4355L73.0052 99.645L69.491 99.1708C68.3158 99.0752 67.1375 99.0086 65.9598 98.934C63.6064 98.861 61.2512 99.0007 58.9229 99.3513C56.5951 99.7034 54.3296 100.386 52.1949 101.379C51.1335 101.891 50.1238 102.504 49.18 103.21C48.2236 103.905 47.3742 104.737 46.6588 105.678L46.6525 105.687C46.6384 105.706 46.6174 105.72 46.5938 105.724C46.5702 105.728 46.5459 105.723 46.5258 105.71C46.5058 105.697 46.4915 105.677 46.4861 105.653C46.4806 105.63 46.4843 105.606 46.4965 105.585L46.4964 105.585Z" fill="#1C1C1C"/>
<path d="M65.592 111.04C66.1578 110.053 66.8774 109.164 67.7237 108.404C68.5683 107.627 69.5145 106.969 70.5365 106.447C71.5673 105.922 72.6804 105.578 73.8275 105.429C74.9637 105.277 76.1193 105.364 77.2199 105.684C76.1217 105.733 75.0307 105.888 73.9624 106.147C72.9209 106.413 71.9123 106.794 70.9556 107.284C69.0151 108.302 67.2126 109.564 65.592 111.04ZM92.1574 161.973C95.4488 166.106 99.1485 169.897 103.2 173.288C107.152 176.714 111.724 179.35 116.669 181.053C119.109 181.838 121.676 182.151 124.233 181.976C126.774 181.764 129.248 181.052 131.512 179.88C136.072 177.578 139.586 173.495 142.133 169.01C144.643 164.413 146.053 159.295 146.251 154.06L146.433 138.168L146.438 134.191C146.397 132.846 146.487 131.5 146.707 130.172C146.902 128.84 147.204 127.525 147.61 126.241C148.104 124.991 148.664 123.769 149.288 122.58C150.485 120.205 151.735 117.868 152.869 115.488C154.056 113.178 154.949 110.728 155.528 108.196C155.535 108.16 155.544 108.125 155.557 108.092L155.563 108.073L158.6 99.9068L160.065 95.8149C160.18 95.5453 160.256 95.2604 160.29 94.969C160.311 94.7208 160.281 94.4709 160.202 94.2347C160.135 94.0179 160.016 93.8206 159.856 93.6596C159.696 93.4985 159.5 93.3785 159.283 93.3097C158.564 93.0411 157.433 93.9769 156.657 95.0409C155.837 96.1677 155.127 97.3709 154.537 98.6338C153.264 101.342 151.659 103.88 149.757 106.19C148.767 107.391 147.6 108.434 146.296 109.285C145.582 109.74 144.795 110.068 143.969 110.254C142.996 110.479 141.974 110.312 141.124 109.789C140.401 109.215 139.855 108.448 139.548 107.577C139.241 106.707 139.186 105.767 139.39 104.867C139.526 104.063 139.77 103.281 140.115 102.542L140.367 102.019C140.44 101.876 140.506 101.73 140.567 101.584C140.69 101.293 140.791 100.994 140.87 100.689C141.027 100.096 141.081 99.4804 141.029 98.8694C141.02 98.6755 140.974 98.4851 140.892 98.309C140.878 98.2811 140.937 98.3596 140.984 98.3574C141.039 98.3633 141.003 98.357 140.933 98.374C140.407 98.5866 139.929 98.903 139.528 99.3043C139.045 99.7541 138.611 100.253 138.232 100.794C136.705 103.122 135.647 105.726 135.117 108.46L135.128 108.27L135.435 115.281L135.588 118.785L135.665 120.537C135.709 121.138 135.715 121.742 135.681 122.344C135.331 124.725 134.647 127.045 133.649 129.236C132.751 131.414 131.727 133.527 130.723 135.631L130.715 135.648L130.694 135.684C128.458 139.018 126.233 142.359 123.964 145.672C123.95 145.692 123.929 145.706 123.905 145.711C123.881 145.716 123.857 145.712 123.836 145.699C123.816 145.686 123.801 145.665 123.795 145.642C123.79 145.618 123.793 145.593 123.805 145.572C125.828 142.103 127.895 138.662 129.95 135.213L129.921 135.266C130.858 133.123 131.8 130.996 132.611 128.826C133.483 126.73 134.062 124.524 134.332 122.271C134.341 121.706 134.315 121.141 134.256 120.579L134.141 118.834L133.91 115.343L133.449 108.362C133.445 108.299 133.449 108.235 133.46 108.172C133.731 106.688 134.129 105.229 134.648 103.811C135.159 102.367 135.846 100.992 136.694 99.7171C137.144 99.0618 137.662 98.4557 138.238 97.9087C138.863 97.2735 139.627 96.7935 140.47 96.5071C140.806 96.414 141.159 96.4107 141.496 96.4977C141.882 96.6045 142.22 96.8405 142.454 97.1662C142.751 97.6118 142.927 98.1273 142.964 98.6616C143.049 99.5012 142.987 100.349 142.78 101.167C142.682 101.567 142.554 101.959 142.398 102.34C142.321 102.529 142.238 102.716 142.148 102.898L141.933 103.359C141.669 103.942 141.479 104.556 141.368 105.186C141.263 105.756 141.284 106.342 141.431 106.903C141.561 107.382 141.839 107.809 142.225 108.121C142.882 108.598 144.17 108.28 145.252 107.589C146.385 106.846 147.407 105.944 148.285 104.911C150.108 102.747 151.655 100.365 152.889 97.8194C153.549 96.4554 154.34 95.1588 155.25 93.9478C155.739 93.2938 156.323 92.7169 156.983 92.2361C157.374 91.9308 157.829 91.7196 158.314 91.6192C158.799 91.5187 159.301 91.5317 159.781 91.657C160.26 91.8095 160.695 92.0754 161.049 92.4321C161.403 92.7888 161.666 93.2259 161.815 93.706C161.962 94.163 162.013 94.6455 161.965 95.1232C161.911 95.5544 161.797 95.9758 161.625 96.3749L160.053 100.458C158.982 103.166 157.915 105.872 156.795 108.559L156.83 108.437C156.147 111.061 155.135 113.589 153.818 115.959C152.593 118.329 151.279 120.636 150.02 122.961C149.381 124.103 148.799 125.276 148.278 126.476C147.865 127.715 147.556 128.986 147.354 130.276C147.123 131.563 147.02 132.87 147.045 134.178L146.999 138.155C146.996 143.466 146.913 148.742 147.084 154.079C147.078 159.494 145.809 164.834 143.379 169.673C142.149 172.102 140.598 174.354 138.766 176.368C136.924 178.417 134.725 180.115 132.277 181.38C129.804 182.626 127.107 183.365 124.345 183.552C121.594 183.704 118.839 183.331 116.227 182.453C111.014 180.769 106.531 177.58 102.535 174.062C100.54 172.289 98.6613 170.388 96.9113 168.372C95.1451 166.38 93.5063 164.279 92.0045 162.081C91.9976 162.071 91.9928 162.059 91.9904 162.047C91.988 162.035 91.988 162.023 91.9903 162.011C91.9927 161.999 91.9974 161.987 92.0042 161.977C92.011 161.967 92.0198 161.958 92.03 161.951C92.0502 161.938 92.0744 161.933 92.0979 161.938C92.1214 161.942 92.1426 161.954 92.1574 161.973Z" fill="#1C1C1C"/>
<path d="M113.297 135.449C115.114 136.83 116.825 138.339 118.5 139.885C120.182 141.425 121.782 143.05 123.351 144.704C124.908 146.369 126.416 148.084 127.838 149.869C129.274 151.642 130.61 153.494 131.841 155.416C131.056 154.583 130.347 153.697 129.562 152.872C128.819 152.014 128.058 151.171 127.29 150.336C125.749 148.671 124.233 146.986 122.669 145.344L113.297 135.449ZM90.3046 106.159C95.357 102.425 100.754 99.1813 106.423 96.4731C109.256 95.0917 112.169 93.8827 115.147 92.8527C118.135 91.8021 121.219 91.0486 124.355 90.6031C127.472 90.1782 130.612 89.9384 133.757 89.885C134.543 89.8664 135.331 89.8698 136.119 89.91L136.71 89.9369C136.931 89.9514 137.149 89.9948 137.358 90.0659C137.78 90.2139 138.152 90.478 138.431 90.8278C138.675 91.1348 138.841 91.4963 138.915 91.8815C138.989 92.2666 138.969 92.6639 138.856 93.0395C138.743 93.4151 138.541 93.7578 138.267 94.0384C137.993 94.319 137.655 94.5292 137.283 94.651L136.726 94.8368C133.763 95.8409 130.791 96.8214 127.791 97.74C126.288 98.1902 124.78 98.638 123.241 98.9999C122.472 99.1843 121.696 99.3529 120.903 99.4937C120.061 99.6639 119.202 99.7317 118.344 99.6955C118.132 99.6803 117.934 99.5839 117.791 99.4263C117.649 99.2688 117.573 99.0624 117.578 98.8499C117.584 98.6375 117.672 98.4356 117.823 98.2861C117.974 98.1367 118.177 98.0513 118.389 98.0478L118.453 98.047L131.841 97.8802L131.853 97.88C132.016 97.8784 132.176 97.9204 132.317 98.0017C132.612 98.1728 132.88 98.3872 133.112 98.6377C133.384 98.9356 133.575 99.2987 133.665 99.6919C133.73 100.083 133.693 100.485 133.558 100.858C133.423 101.231 133.194 101.563 132.893 101.821C132.092 102.502 131.174 103.031 130.183 103.38C129.291 103.712 128.382 103.994 127.46 104.224C126.552 104.483 125.641 104.642 124.732 104.855L125.205 104.599C124.166 105.576 123.046 106.463 121.857 107.252C120.676 108.057 119.417 108.743 118.101 109.3C116.75 109.891 115.296 110.21 113.821 110.242C112.294 110.242 110.812 109.719 109.622 108.76L110.27 108.782C108.801 109.673 107.348 110.589 105.864 111.458C104.385 112.333 102.915 113.222 101.422 114.076C101.401 114.088 101.377 114.091 101.353 114.086C101.33 114.08 101.31 114.066 101.297 114.046C101.284 114.026 101.279 114.002 101.283 113.979C101.287 113.956 101.3 113.935 101.318 113.92C102.689 112.88 104.082 111.875 105.467 110.857C106.847 109.831 108.259 108.854 109.653 107.85C109.742 107.787 109.847 107.752 109.956 107.751C110.065 107.75 110.171 107.782 110.26 107.844L110.301 107.873C111.322 108.586 112.556 108.926 113.798 108.836C115.074 108.749 116.321 108.413 117.469 107.848C118.659 107.281 119.79 106.598 120.846 105.81C121.908 105.024 122.916 104.169 123.864 103.25C123.987 103.131 124.138 103.045 124.303 103.002L124.338 102.994C125.206 102.771 126.098 102.597 126.946 102.336C127.794 102.104 128.63 101.829 129.45 101.513C130.188 101.257 130.879 100.88 131.493 100.397C131.751 100.164 131.701 100.077 131.716 100.112C131.728 100.109 131.692 100.052 131.634 99.9711C131.551 99.8881 131.461 99.8134 131.364 99.7481L131.841 99.8696L118.453 99.7027L118.563 98.0542C119.266 98.0978 119.972 98.0644 120.669 97.9545C121.418 97.8539 122.176 97.723 122.933 97.5748C124.446 97.27 125.967 96.9495 127.482 96.5926C130.512 95.8757 133.526 95.0777 136.525 94.1988L137.086 94.031C137.245 93.9846 137.398 93.9162 137.539 93.8279C137.823 93.6486 138.051 93.3928 138.196 93.0898C138.338 92.7827 138.393 92.4422 138.355 92.1057C138.317 91.7692 138.188 91.4497 137.98 91.182C137.773 90.9149 137.494 90.7123 137.175 90.598C137.014 90.5463 136.846 90.5157 136.677 90.507L136.097 90.4891C135.325 90.4609 134.549 90.468 133.774 90.4985C130.672 90.6808 127.589 91.1028 124.553 91.7609C121.542 92.4373 118.582 93.3267 115.697 94.4225C112.784 95.4567 109.911 96.6123 107.078 97.8894C101.41 100.42 95.8574 103.254 90.4088 106.314C90.3983 106.321 90.3866 106.325 90.3744 106.327C90.3623 106.329 90.3499 106.328 90.3379 106.325C90.326 106.322 90.3148 106.317 90.3049 106.309C90.295 106.302 90.2866 106.293 90.2803 106.282C90.2689 106.262 90.2651 106.239 90.2695 106.216C90.274 106.193 90.2864 106.173 90.3046 106.159Z" fill="#1C1C1C"/>
<path d="M146.487 78.6594L138.279 91.1189C139.842 93.7867 136.35 94.6012 136.35 94.6012L132.373 99.3004C132.373 99.3004 133.505 101.182 130.323 102.249L135.368 104.44C135.368 104.44 137.081 99.3005 139.683 97.8494L137.53 97.1661L147.227 81.3368L160.33 82.6753L150.624 101.322L142.013 98.589C142.13 100.245 141.731 101.896 140.871 103.316L140.328 105.591L146.824 107.688C149.29 104.654 151.592 101.492 153.722 98.2144C155.735 94.779 157.541 92.055 158.833 92.4106L166.077 79.9979L146.487 78.6594ZM135.396 101.266C135.032 101.253 134.688 101.1 134.435 100.838C134.182 100.576 134.041 100.226 134.041 99.862C134.041 99.498 134.182 99.1482 134.435 98.8863C134.688 98.6244 135.032 98.4708 135.396 98.4578C135.759 98.4707 136.104 98.6243 136.357 98.8862C136.61 99.1481 136.751 99.4979 136.751 99.862C136.751 100.226 136.61 100.576 136.357 100.838C136.104 101.1 135.759 101.253 135.396 101.266V101.266ZM146.852 105.085C146.489 105.073 146.144 104.919 145.891 104.657C145.639 104.395 145.497 104.045 145.497 103.681C145.497 103.317 145.639 102.968 145.891 102.706C146.144 102.444 146.489 102.29 146.852 102.277C147.216 102.29 147.561 102.444 147.813 102.706C148.066 102.967 148.207 103.317 148.207 103.681C148.207 104.045 148.066 104.395 147.813 104.657C147.561 104.919 147.216 105.073 146.852 105.085V105.085ZM96.9226 102.246C98.63 103.464 100.232 104.823 101.711 106.31C103.22 107.766 104.603 109.349 105.843 111.04C104.135 109.824 102.533 108.464 101.055 106.976C99.547 105.518 98.1648 103.936 96.9226 102.246ZM272.909 205.604C268.314 203.31 233.664 137.606 233.664 137.606C228.151 127.43 220.934 122.375 214.065 120.035C209.373 118.491 204.391 118.037 199.497 118.709C194.604 119.38 189.928 121.159 185.826 123.91L146.553 149.812C147.161 161.785 144.185 166.278 144.185 166.278L177.318 167.767C190.122 171.343 189.617 181.696 189.617 181.696L190.665 257.941C211.93 268.266 238.25 257.941 238.25 257.941L234.347 236.589L230.556 215.704C229.255 208.759 227.954 201.822 226.429 194.932C225.708 191.478 224.884 188.052 224.004 184.635C223.143 181.228 222.189 177.83 221.093 174.497C220.045 171.153 218.73 167.897 217.162 164.762C216.397 163.197 215.424 161.742 214.27 160.437C213.69 159.798 212.998 159.268 212.23 158.874C211.85 158.663 211.426 158.545 210.992 158.529C210.557 158.512 210.125 158.599 209.731 158.78C210.121 158.549 210.56 158.415 211.013 158.387C211.465 158.359 211.918 158.44 212.333 158.621C213.177 158.964 213.951 159.459 214.617 160.081C215.912 161.335 217.035 162.755 217.958 164.303C219.757 167.393 221.267 170.643 222.47 174.011C224.864 180.71 226.796 187.566 228.254 194.53C229.761 201.466 230.987 208.459 231.998 215.47C233.027 222.482 233.767 229.531 234.347 236.589C252.252 233.378 272.909 205.604 272.909 205.604ZM194.83 257.258C194.466 257.245 194.122 257.091 193.869 256.829C193.617 256.567 193.475 256.218 193.475 255.854C193.475 255.49 193.617 255.14 193.869 254.878C194.122 254.616 194.466 254.463 194.83 254.45C195.194 254.463 195.538 254.616 195.791 254.878C196.044 255.14 196.185 255.49 196.185 255.854C196.185 256.218 196.044 256.567 195.791 256.829C195.538 257.091 195.194 257.245 194.83 257.258ZM201.569 259.055C201.206 259.042 200.861 258.888 200.608 258.627C200.356 258.365 200.214 258.015 200.214 257.651C200.214 257.287 200.356 256.937 200.608 256.675C200.861 256.413 201.206 256.26 201.569 256.247C201.933 256.259 202.278 256.413 202.531 256.675C202.783 256.937 202.925 257.287 202.925 257.651C202.925 258.015 202.783 258.365 202.531 258.627C202.278 258.889 201.933 259.042 201.569 259.055V259.055ZM231.895 254.449C232.259 254.462 232.604 254.615 232.858 254.877C233.111 255.139 233.253 255.489 233.253 255.854C233.253 256.218 233.111 256.568 232.858 256.83C232.604 257.092 232.259 257.246 231.895 257.258C231.53 257.246 231.185 257.092 230.932 256.83C230.679 256.568 230.537 256.218 230.537 255.854C230.537 255.489 230.679 255.139 230.932 254.877C231.185 254.615 231.53 254.462 231.895 254.45V254.449ZM224.482 256.696C224.846 256.708 225.192 256.861 225.445 257.123C225.699 257.385 225.84 257.736 225.84 258.1C225.84 258.465 225.699 258.815 225.445 259.077C225.192 259.339 224.846 259.492 224.482 259.504C224.118 259.492 223.772 259.339 223.519 259.077C223.266 258.815 223.124 258.465 223.124 258.1C223.124 257.736 223.266 257.386 223.519 257.124C223.772 256.862 224.118 256.708 224.482 256.696V256.696ZM217.293 257.595C217.658 257.607 218.003 257.76 218.257 258.022C218.51 258.284 218.652 258.634 218.652 258.999C218.652 259.363 218.51 259.714 218.257 259.976C218.003 260.238 217.658 260.391 217.293 260.403C216.929 260.391 216.584 260.237 216.331 259.975C216.078 259.713 215.936 259.363 215.936 258.999C215.936 258.634 216.078 258.284 216.331 258.022C216.584 257.76 216.929 257.607 217.293 257.595V257.595ZM209.431 260.178C209.068 260.165 208.723 260.012 208.47 259.75C208.218 259.488 208.077 259.138 208.077 258.774C208.077 258.41 208.218 258.06 208.47 257.798C208.723 257.536 209.068 257.383 209.431 257.37C209.795 257.382 210.14 257.536 210.393 257.798C210.646 258.06 210.788 258.41 210.788 258.774C210.788 259.138 210.646 259.488 210.393 259.75C210.14 260.012 209.795 260.166 209.431 260.178V260.178ZM269.633 203.001C269.997 203.013 270.343 203.167 270.596 203.429C270.85 203.691 270.992 204.041 270.992 204.406C270.992 204.77 270.85 205.12 270.596 205.382C270.343 205.644 269.997 205.798 269.633 205.81C269.269 205.797 268.924 205.644 268.671 205.382C268.418 205.12 268.277 204.77 268.277 204.406C268.277 204.041 268.418 203.691 268.671 203.429C268.924 203.167 269.269 203.014 269.633 203.002V203.001ZM264.691 208.618C265.056 208.63 265.401 208.783 265.654 209.045C265.908 209.307 266.05 209.658 266.05 210.022C266.05 210.387 265.908 210.737 265.654 210.999C265.401 211.261 265.056 211.414 264.691 211.426C264.327 211.414 263.982 211.26 263.729 210.998C263.476 210.736 263.335 210.386 263.335 210.022C263.335 209.658 263.476 209.308 263.729 209.046C263.982 208.784 264.327 208.631 264.691 208.618V208.618ZM236.163 234.117C235.799 234.104 235.455 233.951 235.202 233.689C234.949 233.427 234.808 233.077 234.808 232.713C234.808 232.349 234.949 231.999 235.202 231.738C235.455 231.476 235.799 231.322 236.163 231.309C236.527 231.322 236.872 231.475 237.125 231.737C237.378 231.999 237.519 232.349 237.519 232.713C237.519 233.078 237.378 233.428 237.125 233.69C236.872 233.952 236.527 234.105 236.163 234.117V234.117ZM242.228 231.421C241.864 231.408 241.52 231.255 241.267 230.993C241.014 230.731 240.873 230.381 240.873 230.017C240.873 229.653 241.014 229.303 241.267 229.041C241.52 228.78 241.864 228.626 242.228 228.613C242.592 228.625 242.937 228.779 243.19 229.041C243.443 229.303 243.585 229.653 243.585 230.017C243.585 230.381 243.443 230.732 243.19 230.993C242.937 231.255 242.592 231.409 242.228 231.421V231.421ZM248.293 227.827C247.929 227.814 247.585 227.66 247.332 227.398C247.079 227.136 246.938 226.787 246.938 226.423C246.938 226.059 247.079 225.709 247.332 225.447C247.585 225.185 247.929 225.031 248.293 225.018C248.657 225.031 249.002 225.184 249.255 225.446C249.508 225.708 249.65 226.058 249.65 226.423C249.65 226.787 249.508 227.137 249.255 227.399C249.002 227.661 248.657 227.814 248.293 227.827V227.827ZM253.909 222.884C253.545 222.871 253.201 222.718 252.948 222.456C252.695 222.194 252.554 221.844 252.554 221.48C252.554 221.116 252.695 220.766 252.948 220.504C253.201 220.242 253.545 220.089 253.909 220.076C254.273 220.088 254.618 220.242 254.871 220.504C255.124 220.766 255.265 221.116 255.265 221.48C255.265 221.844 255.124 222.194 254.871 222.456C254.618 222.718 254.273 222.872 253.909 222.884V222.884ZM259.525 214.01C259.889 214.022 260.234 214.175 260.488 214.437C260.741 214.699 260.883 215.049 260.883 215.414C260.883 215.779 260.741 216.129 260.488 216.391C260.234 216.653 259.889 216.806 259.525 216.818C259.161 216.806 258.816 216.652 258.563 216.39C258.31 216.128 258.168 215.778 258.168 215.414C258.168 215.05 258.31 214.7 258.563 214.438C258.816 214.176 259.161 214.022 259.525 214.01V214.01Z" fill="#1C1C1C"/>
<path d="M190.832 275.228C191.089 279.567 191.206 283.915 191.051 288.276C191.022 290.49 190.802 292.697 190.393 294.873C190.327 295.165 190.242 295.453 190.139 295.734L189.929 296.192L189.82 296.419C189.81 296.448 189.798 296.476 189.784 296.504C189.75 296.66 189.748 296.822 189.781 296.979C189.814 297.136 189.879 297.284 189.973 297.413C190.503 298.227 191.204 298.917 192.027 299.433C193.736 300.564 195.678 301.295 197.708 301.572C199.739 301.848 201.805 301.664 203.754 301.031C204.236 300.867 204.709 300.677 205.171 300.463C205.67 300.227 206.182 299.996 206.697 299.783C207.734 299.356 208.802 299.01 209.892 298.748C212.072 298.248 214.315 298.081 216.544 298.253C218.754 298.365 220.94 298.759 223.049 299.426C224.102 299.758 225.128 300.171 226.117 300.66C227.085 301.119 228.083 301.509 229.106 301.826C231.166 302.475 233.263 302.998 235.387 303.392C237.509 303.798 239.645 304.149 241.793 304.382C246.069 304.895 250.386 304.976 254.678 304.623C256.763 304.482 258.811 304.009 260.746 303.222C261.605 302.873 262.341 302.277 262.861 301.509C263.059 301.131 263.178 300.716 263.21 300.29C263.243 299.864 263.189 299.436 263.05 299.032L263.196 299.321C262.78 298.852 262.327 298.417 261.842 298.021C261.345 297.597 260.81 297.208 260.275 296.821C259.178 296.067 258.033 295.385 256.847 294.78C254.449 293.572 251.956 292.561 249.393 291.76C246.813 290.96 244.191 290.303 241.539 289.791C240.216 289.502 238.88 289.336 237.551 289.101C236.144 288.924 234.753 288.636 233.392 288.238C230.669 287.45 228.082 286.253 225.718 284.687C223.347 283.131 221.335 281.087 219.815 278.692C218.295 276.297 217.302 273.606 216.903 270.797C216.511 268.05 216.533 265.26 216.968 262.52C216.972 262.496 216.984 262.474 217.004 262.46C217.023 262.445 217.047 262.438 217.071 262.441C217.095 262.443 217.117 262.455 217.132 262.473C217.148 262.492 217.156 262.515 217.154 262.539C216.958 265.255 217.142 267.985 217.702 270.65C218.237 273.277 219.304 275.766 220.836 277.966C222.377 280.127 224.328 281.964 226.579 283.37C228.842 284.766 231.304 285.81 233.881 286.467C235.163 286.801 236.467 287.046 237.783 287.199C239.156 287.419 240.548 287.573 241.908 287.849C243.271 288.111 244.638 288.361 245.981 288.729C247.337 289.043 248.669 289.455 250.002 289.862C252.668 290.718 255.252 291.811 257.724 293.127C260.29 294.422 262.606 296.164 264.562 298.27C264.625 298.341 264.67 298.425 264.696 298.516L264.708 298.559C264.903 299.189 264.965 299.852 264.89 300.507C264.815 301.162 264.605 301.795 264.273 302.365C263.56 303.395 262.552 304.186 261.381 304.635C259.272 305.442 257.039 305.882 254.781 305.937C250.404 306.082 246.024 305.808 241.699 305.118C237.38 304.528 233.111 303.617 228.927 302.391C227.876 302.07 226.843 301.689 225.835 301.251C224.865 300.806 223.862 300.439 222.833 300.156C220.768 299.618 218.643 299.347 216.51 299.348C214.399 299.289 212.291 299.55 210.257 300.12C209.253 300.424 208.268 300.792 207.31 301.221C206.829 301.435 206.357 301.664 205.882 301.904C205.367 302.161 204.838 302.39 204.298 302.591C202.115 303.36 199.774 303.574 197.487 303.213C195.213 302.86 193.048 301.997 191.155 300.69C190.149 300.025 189.304 299.144 188.684 298.11C188.515 297.803 188.397 297.47 188.336 297.125C188.256 296.715 188.306 296.291 188.478 295.911L188.625 295.632L188.688 295.49L188.821 295.21C188.907 294.984 188.979 294.752 189.037 294.517C189.517 292.444 189.825 290.334 189.957 288.21C190.287 283.905 190.487 279.569 190.645 275.231C190.645 275.219 190.648 275.207 190.653 275.195C190.658 275.184 190.665 275.174 190.674 275.165C190.683 275.157 190.693 275.15 190.705 275.146C190.716 275.141 190.729 275.139 190.741 275.14C190.764 275.141 190.786 275.15 190.803 275.166C190.82 275.182 190.83 275.204 190.832 275.228ZM245.683 231.862C246.589 233.529 247.404 235.24 248.179 236.973C248.953 238.705 249.687 240.46 250.318 242.257C250.965 244.056 251.516 245.888 251.967 247.746C252.462 249.635 252.697 251.584 252.666 253.536C252.651 254.043 252.597 254.547 252.505 255.045C252.462 255.301 252.404 255.555 252.33 255.804L252.214 256.181C252.197 256.237 252.166 256.324 252.162 256.353C252.159 256.38 252.153 256.406 252.146 256.431C252.03 256.876 252.485 257.698 253.047 258.29C254.288 259.547 255.81 260.491 257.488 261.045C259.168 261.635 260.949 261.883 262.727 261.776C264.514 261.65 266.257 261.158 267.846 260.331C269.612 259.491 271.482 258.89 273.406 258.541C275.324 258.244 277.27 258.173 279.204 258.331C281.126 258.454 283.029 258.79 284.877 259.334C285.799 259.608 286.703 259.939 287.584 260.326C288.424 260.745 289.286 261.118 290.166 261.445C293.74 262.623 297.428 263.419 301.17 263.821C304.898 264.298 308.664 264.409 312.413 264.152C314.263 264.025 316.097 263.725 317.89 263.254C318.758 263.014 319.601 262.69 320.406 262.287C321.179 261.928 321.87 261.415 322.436 260.778C322.975 260.192 323.294 259.438 323.341 258.643C323.416 257.831 323.282 257.014 322.951 256.269C322.59 255.493 322.102 254.781 321.509 254.164C320.905 253.484 320.257 252.846 319.569 252.252C316.756 249.873 313.558 247.991 310.112 246.688C308.389 246.012 306.629 245.434 304.841 244.957C303.045 244.474 301.147 243.988 299.342 243.375C295.695 242.169 292.169 240.626 288.809 238.766C285.477 236.876 282.314 234.704 279.353 232.273C276.375 229.874 273.65 227.177 271.22 224.223C268.767 221.288 266.854 217.943 265.569 214.341C265.561 214.317 265.562 214.291 265.573 214.269C265.584 214.247 265.603 214.23 265.627 214.222C265.649 214.214 265.674 214.216 265.695 214.225C265.717 214.235 265.734 214.252 265.744 214.274C267.291 217.7 269.384 220.852 271.94 223.608C274.47 226.369 277.255 228.885 280.258 231.123C286.167 235.705 292.838 239.21 299.963 241.477C301.745 242.063 303.506 242.532 305.362 243.03C307.229 243.523 309.06 244.141 310.844 244.879C314.463 246.32 317.81 248.369 320.74 250.936C321.472 251.591 322.161 252.293 322.801 253.039C323.505 253.801 324.072 254.68 324.476 255.637C324.885 256.641 325.031 257.734 324.9 258.811C324.838 259.361 324.694 259.899 324.474 260.407C324.23 260.899 323.919 261.354 323.55 261.76C322.837 262.522 321.976 263.131 321.02 263.547C320.116 263.954 319.174 264.271 318.208 264.492C316.321 264.9 314.4 265.129 312.471 265.176C308.663 265.259 304.854 265.025 301.085 264.474C297.313 263.984 293.592 263.161 289.964 262.017C289.069 261.712 288.149 261.319 287.316 260.949C286.456 260.597 285.573 260.306 284.673 260.076C282.866 259.637 281.016 259.401 279.157 259.373C277.313 259.31 275.468 259.462 273.66 259.826C271.876 260.242 270.152 260.882 268.529 261.731C266.775 262.709 264.828 263.292 262.825 263.44C260.822 263.589 258.811 263.3 256.932 262.592C255.015 261.918 253.289 260.794 251.898 259.314C251.535 258.911 251.227 258.462 250.983 257.977C250.678 257.408 250.575 256.753 250.691 256.118L250.764 255.853L250.817 255.686L250.915 255.388C250.98 255.185 251.031 254.978 251.069 254.769C251.157 254.339 251.211 253.902 251.231 253.464C251.209 249.755 250.585 246.074 249.386 242.565C248.274 238.962 246.982 235.417 245.514 231.944C245.505 231.921 245.504 231.895 245.513 231.872C245.522 231.849 245.54 231.831 245.562 231.821C245.584 231.811 245.608 231.811 245.63 231.818C245.652 231.826 245.671 231.841 245.683 231.862ZM94.3558 68.2597C94.7198 68.2471 95.0646 68.0936 95.3176 67.8317C95.5706 67.5697 95.712 67.2197 95.712 66.8555C95.712 66.4913 95.5706 66.1413 95.3176 65.8794C95.0646 65.6174 94.7198 65.464 94.3558 65.4514C93.9919 65.464 93.6471 65.6174 93.3941 65.8794C93.1411 66.1413 92.9996 66.4913 92.9996 66.8555C92.9996 67.2197 93.1411 67.5697 93.3941 67.8317C93.6471 68.0936 93.9919 68.2471 94.3558 68.2597ZM72.087 70.0034C72.451 69.9908 72.7959 69.8374 73.0489 69.5754C73.3019 69.3134 73.4434 68.9635 73.4434 68.5992C73.4434 68.235 73.3019 67.885 73.0489 67.623C72.7959 67.3611 72.451 67.2076 72.087 67.1951C71.7231 67.2076 71.3782 67.3611 71.1252 67.623C70.8722 67.885 70.7307 68.235 70.7307 68.5992C70.7307 68.9635 70.8722 69.3134 71.1252 69.5754C71.3782 69.8374 71.7231 69.9908 72.087 70.0034ZM90.3567 78.332C91.0084 79.1326 91.5471 79.8532 92.1824 80.489C92.4913 80.8138 92.8244 81.1148 93.1788 81.3892C93.5321 81.6858 93.9302 81.9171 94.3558 82.2339C93.8339 82.3038 93.3029 82.2315 92.8186 82.0247C92.3264 81.8258 91.8816 81.5252 91.5133 81.1427C91.1493 80.7659 90.8564 80.3264 90.6487 79.8453C90.4329 79.3711 90.3328 78.8525 90.3567 78.332ZM96.9226 62.4944C96.4316 62.6119 95.9158 62.5666 95.4528 62.3653C94.9898 62.164 94.6048 61.8176 94.3558 61.3783C94.8459 61.2501 95.3653 61.2957 95.8256 61.5073C96.2932 61.7014 96.6803 62.0498 96.9226 62.4944ZM70.6433 71.4178C71.1216 71.4797 71.6031 71.5132 72.0854 71.5182C72.5267 71.5254 72.9486 71.4568 73.5308 71.4178C73.3906 71.6696 73.1796 71.8747 72.924 72.0078C72.6667 72.1469 72.3787 72.2198 72.0862 72.2199C71.7956 72.2297 71.5077 72.1603 71.2535 72.019C70.9993 71.8777 70.7884 71.6698 70.6433 71.4178ZM91.2768 158.633C91.6408 158.621 91.9856 158.467 92.2386 158.205C92.4916 157.943 92.633 157.593 92.633 157.229C92.633 156.865 92.4916 156.515 92.2386 156.253C91.9856 155.991 91.6408 155.837 91.2768 155.825C90.9129 155.837 90.5681 155.991 90.3151 156.253C90.0621 156.515 89.9207 156.865 89.9207 157.229C89.9207 157.593 90.0621 157.943 90.3151 158.205C90.5681 158.467 90.9129 158.621 91.2768 158.633ZM95.9942 154.589C96.3581 154.577 96.7029 154.423 96.9559 154.161C97.2089 153.899 97.3503 153.549 97.3503 153.185C97.3503 152.821 97.2089 152.471 96.9559 152.209C96.7029 151.947 96.3581 151.794 95.9942 151.781C95.6302 151.794 95.2854 151.947 95.0324 152.209C94.7794 152.471 94.638 152.821 94.638 153.185C94.638 153.549 94.7794 153.899 95.0324 154.161C95.2854 154.423 95.6302 154.577 95.9942 154.589ZM100.936 149.647C101.3 149.634 101.645 149.481 101.898 149.219C102.151 148.957 102.292 148.607 102.292 148.243C102.292 147.878 102.151 147.528 101.898 147.266C101.645 147.004 101.3 146.851 100.936 146.838C100.572 146.851 100.227 147.004 99.9742 147.266C99.7212 147.528 99.5798 147.878 99.5798 148.243C99.5798 148.607 99.7212 148.957 99.9742 149.219C100.227 149.481 100.572 149.634 100.936 149.647ZM105.204 144.03C105.568 144.017 105.913 143.864 106.166 143.602C106.419 143.34 106.56 142.99 106.56 142.626C106.56 142.262 106.419 141.912 106.166 141.65C105.913 141.388 105.568 141.234 105.204 141.222C104.84 141.234 104.495 141.388 104.242 141.65C103.989 141.912 103.848 142.262 103.848 142.626C103.848 142.99 103.989 143.34 104.242 143.602C104.495 143.864 104.84 144.017 105.204 144.03ZM108.798 138.413C109.162 138.401 109.507 138.247 109.76 137.985C110.013 137.724 110.155 137.374 110.155 137.009C110.155 136.645 110.013 136.295 109.76 136.033C109.507 135.771 109.162 135.618 108.798 135.605C108.434 135.618 108.089 135.771 107.836 136.033C107.583 136.295 107.442 136.645 107.442 137.009C107.442 137.374 107.583 137.724 107.836 137.985C108.089 138.247 108.434 138.401 108.798 138.413Z" fill="#1C1C1C"/>
<path d="M158.007 45.0894H133.227V60.4313H142.24L145.617 63.809L148.993 60.4313H158.007V45.0894Z" stroke="#1C1C1C" stroke-width="0.968" stroke-miterlimit="10"/>
<path d="M182.787 21.5159H158.007V36.8578H167.02L170.397 40.2355L173.773 36.8578H182.787V21.5159Z" stroke="#1C1C1C" stroke-width="0.968" stroke-miterlimit="10"/>
<path d="M155.103 1H130.323V16.3419H139.336L142.714 19.7187L146.09 16.3419H155.103V1Z" stroke="#1C1C1C" stroke-width="0.968" stroke-miterlimit="10"/>
</svg>
